<?xml version="1.0" encoding="UTF-8"?>
<!DOCTYPE svg PUBLIC "-//W3C//DTD SVG 1.1//EN" "http://www.w3.org/Graphics/SVG/1.1/DTD/svg11.dtd">
<svg xmlns="http://www.w3.org/2000/svg" version="1.1" width="2000px" height="586px" style="shape-rendering:geometricPrecision; text-rendering:geometricPrecision; image-rendering:optimizeQuality; fill-rule:evenodd; clip-rule:evenodd" xmlns:xlink="http://www.w3.org/1999/xlink">
<g><path style="opacity:1" fill="#5743cc" d="M 643.5,146.5 C 640.596,146.692 637.596,147.025 634.5,147.5C 632.813,147.24 631.313,146.573 630,145.5C 626.667,146.833 623.333,148.167 620,149.5C 619.581,148.328 618.915,147.328 618,146.5C 607.963,147.728 597.796,148.395 587.5,148.5C 524.868,112.889 462.201,77.2223 399.5,41.5C 372.898,56.8057 346.231,72.1391 319.5,87.5C 309.949,82.6317 300.616,77.2983 291.5,71.5C 290.269,70.3493 290.269,69.1827 291.5,68C 327.709,47.7328 363.709,27.2328 399.5,6.5C 481.217,52.6858 562.55,99.3524 643.5,146.5 Z"/></g>
<g><path style="opacity:1" fill="#5743cc" d="M 527.5,149.5 C 517.6,150.067 507.434,150.067 497,149.5C 496.612,150.428 495.945,151.095 495,151.5C 494.894,150.206 493.894,149.539 492,149.5C 489.229,148.944 486.563,149.611 484,151.5C 482.238,151.056 482.405,150.556 484.5,150C 482.5,149.333 480.5,149.333 478.5,150C 479.696,150.654 479.696,151.154 478.5,151.5C 477.031,149.625 475.198,149.625 473,151.5C 472.295,149.014 471.462,149.014 470.5,151.5C 446.953,137.895 423.287,124.562 399.5,111.5C 372.833,126.5 346.167,141.5 319.5,156.5C 299.096,145.549 278.929,134.216 259,122.5C 238.586,134.291 218.086,145.958 197.5,157.5C 182.387,157.275 167.387,157.275 152.5,157.5C 152.335,154.482 152.502,151.482 153,148.5C 188.25,127.879 223.584,107.546 259,87.5C 279.025,99.2581 299.192,110.591 319.5,121.5C 346.61,106.532 373.443,91.1988 400,75.5C 442.649,99.9979 485.149,124.665 527.5,149.5 Z"/></g>
<g><path style="opacity:1" fill="#63cece" d="M 812.5,104.5 C 843.761,102.972 870.595,112.972 893,134.5C 893.667,135.5 893.667,136.5 893,137.5C 885.258,145.746 877.091,153.413 868.5,160.5C 861.257,155.11 853.591,150.277 845.5,146C 807.337,134.601 778.504,146.101 759,180.5C 745.525,220.413 757.358,250.246 794.5,270C 804.353,273.114 814.353,275.448 824.5,277C 836.167,284.833 847.833,292.667 859.5,300.5C 860.429,301.689 860.762,303.022 860.5,304.5C 820.635,318.356 784.302,312.189 751.5,286C 717.03,251.945 708.197,212.112 725,166.5C 742.939,129.95 772.106,109.284 812.5,104.5 Z"/></g>
<g><path style="opacity:1" fill="#63cece" d="M 954.5,104.5 C 957.167,104.5 959.833,104.5 962.5,104.5C 962.5,116.833 962.5,129.167 962.5,141.5C 944.189,143.092 936.022,153.092 938,171.5C 941.525,182.511 949.025,188.678 960.5,190C 981.5,190.333 1002.5,190.667 1023.5,191C 1042.92,194.787 1057.42,205.287 1067,222.5C 1080.62,256.97 1072.12,284.47 1041.5,305C 1032.04,309.632 1022.04,311.799 1011.5,311.5C 1011.33,299.495 1011.5,287.495 1012,275.5C 1026.91,273.754 1035.41,265.421 1037.5,250.5C 1035.7,238.536 1029.04,230.703 1017.5,227C 996.5,226.667 975.5,226.333 954.5,226C 928.601,222.436 911.435,208.27 903,183.5C 895.49,149.694 906.99,124.86 937.5,109C 943.175,107 948.842,105.5 954.5,104.5 Z"/></g>
<g><path style="opacity:1" fill="#63cece" d="M 1372.5,122.5 C 1387.94,121.397 1394.11,128.397 1391,143.5C 1386.21,150.533 1379.71,152.7 1371.5,150C 1363.96,146.016 1361.46,139.849 1364,131.5C 1365.69,127.315 1368.52,124.315 1372.5,122.5 Z"/></g>
<g><path style="opacity:1" fill="#63cece" d="M 1585.5,122.5 C 1603.29,122.283 1608.63,130.283 1601.5,146.5C 1593.98,153.075 1586.48,153.075 1579,146.5C 1576.58,141.43 1575.91,136.097 1577,130.5C 1579.1,126.897 1581.93,124.23 1585.5,122.5 Z"/></g>
<g><path style="opacity:1" fill="#584dce" d="M 643.5,146.5 C 644.496,146.414 645.329,146.748 646,147.5C 646.499,151.821 646.666,156.154 646.5,160.5C 641.629,160.567 636.962,160.9 632.5,161.5C 631.252,160.96 630.085,160.293 629,159.5C 628.333,162.167 627.667,162.167 627,159.5C 626.333,160.167 625.667,160.833 625,161.5C 624.15,160.576 623.15,160.576 622,161.5C 621.055,161.095 620.388,160.428 620,159.5C 618.247,160.627 616.413,161.627 614.5,162.5C 613.749,161.624 613.249,160.624 613,159.5C 612.081,161.239 610.915,161.906 609.5,161.5C 601.829,157.667 594.496,153.334 587.5,148.5C 597.796,148.395 607.963,147.728 618,146.5C 618.915,147.328 619.581,148.328 620,149.5C 623.333,148.167 626.667,146.833 630,145.5C 631.313,146.573 632.813,147.24 634.5,147.5C 637.596,147.025 640.596,146.692 643.5,146.5 Z"/></g>
<g><path style="opacity:1" fill="#584dce" d="M 197.5,157.5 C 193.398,160.392 189.065,163.059 184.5,165.5C 183.534,167.396 183.201,169.396 183.5,171.5C 182.193,170.797 180.693,170.797 179,171.5C 177.674,171.245 176.674,170.578 176,169.5C 174.084,172.033 172.084,172.033 170,169.5C 169.667,170.167 169.333,170.833 169,171.5C 167.732,171.384 166.398,171.051 165,170.5C 164.374,172.991 163.541,172.991 162.5,170.5C 159.84,172.496 157.007,172.496 154,170.5C 153.617,171.056 153.117,171.389 152.5,171.5C 152.5,166.833 152.5,162.167 152.5,157.5C 167.387,157.275 182.387,157.275 197.5,157.5 Z"/></g>
<g><path style="opacity:1" fill="#5952d0" d="M 527.5,149.5 C 540.823,156.868 553.823,164.534 566.5,172.5C 562.915,174.664 559.415,174.664 556,172.5C 555.667,173.5 555.333,174.5 555,175.5C 554,174.5 553,173.5 552,172.5C 551.683,174.301 551.016,174.634 550,173.5C 548.209,175.513 546.875,175.513 546,173.5C 545.333,174.167 544.667,174.833 544,175.5C 541.688,175.045 539.688,174.045 538,172.5C 535.805,173.595 533.638,174.595 531.5,175.5C 530.252,174.96 529.085,174.293 528,173.5C 523.362,174.449 518.528,175.115 513.5,175.5C 499.032,167.766 484.699,159.766 470.5,151.5C 471.462,149.014 472.295,149.014 473,151.5C 475.198,149.625 477.031,149.625 478.5,151.5C 479.696,151.154 479.696,150.654 478.5,150C 480.5,149.333 482.5,149.333 484.5,150C 482.405,150.556 482.238,151.056 484,151.5C 486.563,149.611 489.229,148.944 492,149.5C 493.894,149.539 494.894,150.206 495,151.5C 495.945,151.095 496.612,150.428 497,149.5C 507.434,150.067 517.6,150.067 527.5,149.5 Z"/></g>
<g><path style="opacity:1" fill="#5953d0" d="M 298.5,180.5 C 295.606,180.958 293.106,180.291 291,178.5C 288.975,180.725 286.642,181.059 284,179.5C 281.729,181.434 279.729,181.434 278,179.5C 275.333,180.167 272.667,180.833 270,181.5C 251.136,180.878 233.302,180.878 216.5,181.5C 230.475,173.422 244.642,165.422 259,157.5C 272.427,164.794 285.594,172.461 298.5,180.5 Z"/></g>
<g><path style="opacity:1" fill="#5a58d1" d="M 646.5,160.5 C 646.5,168.167 646.5,175.833 646.5,183.5C 642.432,184.76 637.932,184.76 633,183.5C 631.236,186.138 629.902,185.804 629,182.5C 628.667,183.167 628.333,183.833 628,184.5C 626.542,183.253 625.042,183.253 623.5,184.5C 623.167,183.833 622.833,183.167 622.5,182.5C 621.063,185.044 619.563,185.044 618,182.5C 617.768,183.737 617.268,184.737 616.5,185.5C 616.666,179.158 616.5,172.825 616,166.5C 613.929,164.563 611.762,162.896 609.5,161.5C 610.915,161.906 612.081,161.239 613,159.5C 613.249,160.624 613.749,161.624 614.5,162.5C 616.413,161.627 618.247,160.627 620,159.5C 620.388,160.428 621.055,161.095 622,161.5C 623.15,160.576 624.15,160.576 625,161.5C 625.667,160.833 626.333,160.167 627,159.5C 627.667,162.167 628.333,162.167 629,159.5C 630.085,160.293 631.252,160.96 632.5,161.5C 636.962,160.9 641.629,160.567 646.5,160.5 Z"/></g>
<g><path style="opacity:1" fill="#5b5cd3" d="M 298.5,180.5 C 311.534,187.345 324.201,194.679 336.5,202.5C 333.769,202.059 331.269,201.726 329,201.5C 327.691,203.891 326.691,203.891 326,201.5C 324.333,202.167 322.667,202.833 321,203.5C 319.667,200.833 318.333,200.833 317,203.5C 315.518,201.219 313.851,201.219 312,203.5C 309.907,202.754 307.907,202.421 306,202.5C 304.307,203.184 302.807,204.184 301.5,205.5C 300.304,205.154 300.304,204.654 301.5,204C 299.671,203.727 298.171,202.893 297,201.5C 296.275,203.158 295.108,203.658 293.5,203C 295.595,202.444 295.762,201.944 294,201.5C 291.615,204.94 288.949,205.273 286,202.5C 284.53,203.267 283.03,203.933 281.5,204.5C 273.832,200.914 266.332,196.914 259,192.5C 254.896,194.802 250.73,196.968 246.5,199C 244.393,200.264 243.393,202.097 243.5,204.5C 242.504,204.586 241.671,204.252 241,203.5C 240.333,206.167 239.667,206.167 239,203.5C 237,204.167 235,204.833 233,205.5C 231.333,202.833 229.667,202.833 228,205.5C 226.518,203.219 224.851,203.219 223,205.5C 219.743,204.325 216.577,204.325 213.5,205.5C 213.169,197.804 213.503,190.138 214.5,182.5C 215.183,182.137 215.85,181.804 216.5,181.5C 233.302,180.878 251.136,180.878 270,181.5C 272.667,180.833 275.333,180.167 278,179.5C 279.729,181.434 281.729,181.434 284,179.5C 286.642,181.059 288.975,180.725 291,178.5C 293.106,180.291 295.606,180.958 298.5,180.5 Z"/></g>
<g><path style="opacity:1" fill="#63cece" d="M 1174.5,178.5 C 1221.89,176.057 1245.89,198.557 1246.5,246C 1244.61,294.228 1219.61,316.894 1171.5,314C 1143.48,309.984 1126.32,294.151 1120,266.5C 1116.25,246.378 1118.58,227.044 1127,208.5C 1137.95,190.774 1153.79,180.774 1174.5,178.5 Z M 1180.5,197.5 C 1201.58,197.434 1215.08,207.434 1221,227.5C 1224.33,240.167 1224.33,252.833 1221,265.5C 1215.53,284.166 1203.03,294.166 1183.5,295.5C 1161.75,293.888 1148.25,282.555 1143,261.5C 1139.41,244.4 1142.07,228.4 1151,213.5C 1158.59,203.792 1168.42,198.459 1180.5,197.5 Z"/></g>
<g><path style="opacity:1" fill="#63cece" d="M 1469.5,178.5 C 1482.74,176.927 1495.08,179.427 1506.5,186C 1510.33,188.5 1513.5,191.667 1516,195.5C 1516.5,190.845 1516.67,186.179 1516.5,181.5C 1524.17,181.5 1531.83,181.5 1539.5,181.5C 1539.67,224.835 1539.5,268.168 1539,311.5C 1537.11,346.39 1518.94,366.223 1484.5,371C 1465.45,373.491 1447.12,370.991 1429.5,363.5C 1428.5,355.862 1428.17,348.196 1428.5,340.5C 1434.79,342.878 1441.12,345.378 1447.5,348C 1465.85,354.811 1483.52,353.477 1500.5,344C 1509.63,336.308 1514.79,326.474 1516,314.5C 1516.67,307.833 1516.67,301.167 1516,294.5C 1498.6,313.992 1477.44,319.492 1452.5,311C 1432.59,301.041 1421.76,284.875 1420,262.5C 1417.24,240.759 1421.24,220.425 1432,201.5C 1441.35,188.579 1453.85,180.912 1469.5,178.5 Z M 1479.5,197.5 C 1506.78,200.955 1519.11,216.455 1516.5,244C 1518.09,256.732 1515.59,268.566 1509,279.5C 1496.39,294.861 1480.89,298.694 1462.5,291C 1448.46,280.417 1441.79,266.25 1442.5,248.5C 1442.12,235.03 1445.62,222.697 1453,211.5C 1460.04,203.23 1468.88,198.563 1479.5,197.5 Z"/></g>
<g><path style="opacity:1" fill="#63cece" d="M 1696.5,178.5 C 1730.68,176.181 1748.18,192.181 1749,226.5C 1749.5,254.831 1749.67,283.165 1749.5,311.5C 1741.83,311.5 1734.17,311.5 1726.5,311.5C 1726.67,283.498 1726.5,255.498 1726,227.5C 1722.98,203.581 1709.81,194.415 1686.5,200C 1673.69,206.156 1666.19,216.323 1664,230.5C 1663.5,257.498 1663.33,284.498 1663.5,311.5C 1655.83,311.5 1648.17,311.5 1640.5,311.5C 1640.5,268.167 1640.5,224.833 1640.5,181.5C 1648.17,181.5 1655.83,181.5 1663.5,181.5C 1663.33,187.509 1663.5,193.509 1664,199.5C 1671.89,187.748 1682.72,180.748 1696.5,178.5 Z"/></g>
<g><path style="opacity:1" fill="#63cece" d="M 1324.5,179.5 C 1330.51,179.334 1336.51,179.501 1342.5,180C 1343.77,180.309 1344.93,180.809 1346,181.5C 1346.5,189.159 1346.67,196.826 1346.5,204.5C 1328.06,195.703 1314.22,200.37 1305,218.5C 1302.06,225.185 1300.4,232.185 1300,239.5C 1299.5,263.498 1299.33,287.498 1299.5,311.5C 1292.17,311.5 1284.83,311.5 1277.5,311.5C 1277.5,268.167 1277.5,224.833 1277.5,181.5C 1284.83,181.5 1292.17,181.5 1299.5,181.5C 1299.33,188.175 1299.5,194.842 1300,201.5C 1305.55,191.111 1313.72,183.778 1324.5,179.5 Z"/></g>
<g><path style="opacity:1" fill="#63cdce" d="M 1818.5,179.5 C 1832.22,178.452 1845.55,180.118 1858.5,184.5C 1858.67,191.841 1858.5,199.174 1858,206.5C 1842.67,196.854 1826.51,195.02 1809.5,201C 1797.53,210.526 1797.53,220.192 1809.5,230C 1823.37,235.954 1837.04,242.287 1850.5,249C 1864.07,260.579 1867.57,274.745 1861,291.5C 1856.35,299.809 1849.52,305.642 1840.5,309C 1819.83,315.645 1799.49,314.811 1779.5,306.5C 1778.34,298.855 1778.17,291.188 1779,283.5C 1794.54,294.809 1811.71,298.309 1830.5,294C 1839.88,290.286 1843.71,283.452 1842,273.5C 1840.26,269.759 1837.76,266.592 1834.5,264C 1820.5,257.333 1806.5,250.667 1792.5,244C 1780.97,234.417 1776.81,222.25 1780,207.5C 1783.74,196.092 1791.24,188.259 1802.5,184C 1807.87,182.16 1813.21,180.66 1818.5,179.5 Z"/></g>
<g><path style="opacity:1" fill="#63cece" d="M 1366.5,181.5 C 1373.83,181.5 1381.17,181.5 1388.5,181.5C 1388.5,224.833 1388.5,268.167 1388.5,311.5C 1381.17,311.5 1373.83,311.5 1366.5,311.5C 1366.5,268.167 1366.5,224.833 1366.5,181.5 Z"/></g>
<g><path style="opacity:1" fill="#63cece" d="M 1578.5,181.5 C 1586.17,181.5 1593.83,181.5 1601.5,181.5C 1601.5,224.833 1601.5,268.167 1601.5,311.5C 1593.83,311.5 1586.17,311.5 1578.5,311.5C 1578.5,268.167 1578.5,224.833 1578.5,181.5 Z"/></g>
<g><path style="opacity:1" fill="#5a58d1" d="M 183.5,171.5 C 183.5,178.833 183.5,186.167 183.5,193.5C 182.388,195.744 180.888,195.744 179,193.5C 177,194.833 175,194.833 173,193.5C 171.221,196.276 170.221,195.943 170,192.5C 169,193.5 168,194.5 167,195.5C 165.127,196.089 163.46,195.422 162,193.5C 161.16,196.464 160.16,196.797 159,194.5C 158.692,195.308 158.192,195.975 157.5,196.5C 156.15,195.05 154.484,194.383 152.5,194.5C 152.5,186.833 152.5,179.167 152.5,171.5C 153.117,171.389 153.617,171.056 154,170.5C 157.007,172.496 159.84,172.496 162.5,170.5C 163.541,172.991 164.374,172.991 165,170.5C 166.398,171.051 167.732,171.384 169,171.5C 169.333,170.833 169.667,170.167 170,169.5C 172.084,172.033 174.084,172.033 176,169.5C 176.674,170.578 177.674,171.245 179,171.5C 180.693,170.797 182.193,170.797 183.5,171.5 Z"/></g>
<g><path style="opacity:1" fill="#5b5ed3" d="M 566.5,172.5 C 574.099,175.967 581.433,179.967 588.5,184.5C 589.491,188.445 589.824,192.445 589.5,196.5C 587.795,195.912 586.128,195.579 584.5,195.5C 584.167,196.167 583.833,196.833 583.5,197.5C 581.958,196.253 580.458,196.253 579,197.5C 577.598,195.027 576.098,195.027 574.5,197.5C 573.033,197.277 571.533,196.944 570,196.5C 567.667,199.5 566,199.167 565,195.5C 564.333,198.167 563.667,198.167 563,195.5C 561.333,196.167 559.667,196.833 558,197.5C 556.192,197.112 554.525,197.112 553,197.5C 552.667,196.833 552.333,196.167 552,195.5C 551.722,196.416 551.222,197.082 550.5,197.5C 537.933,190.39 525.6,183.057 513.5,175.5C 518.528,175.115 523.362,174.449 528,173.5C 529.085,174.293 530.252,174.96 531.5,175.5C 533.638,174.595 535.805,173.595 538,172.5C 539.688,174.045 541.688,175.045 544,175.5C 544.667,174.833 545.333,174.167 546,173.5C 546.875,175.513 548.209,175.513 550,173.5C 551.016,174.634 551.683,174.301 552,172.5C 553,173.5 554,174.5 555,175.5C 555.333,174.5 555.667,173.5 556,172.5C 559.415,174.664 562.915,174.664 566.5,172.5 Z"/></g>
<g><path style="opacity:1" fill="#5c64d5" d="M 646.5,183.5 C 646.5,191.833 646.5,200.167 646.5,208.5C 644.533,208.739 642.699,208.406 641,207.5C 640.125,209.513 638.791,209.513 637,207.5C 633.976,208.53 631.143,209.196 628.5,209.5C 627.808,208.975 627.308,208.308 627,207.5C 625.477,209.62 623.644,209.953 621.5,208.5C 619.866,208.968 618.7,209.968 618,211.5C 617.722,210.584 617.222,209.918 616.5,209.5C 616.5,201.5 616.5,193.5 616.5,185.5C 617.268,184.737 617.768,183.737 618,182.5C 619.563,185.044 621.063,185.044 622.5,182.5C 622.833,183.167 623.167,183.833 623.5,184.5C 625.042,183.253 626.542,183.253 628,184.5C 628.333,183.833 628.667,183.167 629,182.5C 629.902,185.804 631.236,186.138 633,183.5C 637.932,184.76 642.432,184.76 646.5,183.5 Z"/></g>
<g><path style="opacity:1" fill="#5d66d5" d="M 589.5,196.5 C 589.5,200.167 589.5,203.833 589.5,207.5C 588.685,208.429 587.852,209.429 587,210.5C 586.333,207.833 585.667,207.833 585,210.5C 584.667,210.167 584.333,209.833 584,209.5C 582.915,210.293 581.748,210.96 580.5,211.5C 579.28,210.289 578.113,210.289 577,211.5C 576.333,210.833 575.667,210.167 575,209.5C 573.667,209.5 572.333,209.5 571,209.5C 570.333,210.167 569.667,210.833 569,211.5C 565.728,210.276 562.228,210.276 558.5,211.5C 558.665,208.482 558.498,205.482 558,202.5C 555.521,200.686 553.021,199.019 550.5,197.5C 551.222,197.082 551.722,196.416 552,195.5C 552.333,196.167 552.667,196.833 553,197.5C 554.525,197.112 556.192,197.112 558,197.5C 559.667,196.833 561.333,196.167 563,195.5C 563.667,198.167 564.333,198.167 565,195.5C 566,199.167 567.667,199.5 570,196.5C 571.533,196.944 573.033,197.277 574.5,197.5C 576.098,195.027 577.598,195.027 579,197.5C 580.458,196.253 581.958,196.253 583.5,197.5C 583.833,196.833 584.167,196.167 584.5,195.5C 586.128,195.579 587.795,195.912 589.5,196.5 Z"/></g>
<g><path style="opacity:1" fill="#5d66d5" d="M 504.5,212.5 C 503.504,212.586 502.671,212.252 502,211.5C 501.667,212.167 501.333,212.833 501,213.5C 499.667,212.833 498.333,212.167 497,211.5C 492.025,212.151 486.858,212.151 481.5,211.5C 480.808,212.025 480.308,212.692 480,213.5C 479,210.833 478,210.833 477,213.5C 476.667,212.833 476.333,212.167 476,211.5C 475.333,212.833 474.667,212.833 474,211.5C 473.311,212.357 472.478,213.023 471.5,213.5C 470.5,212.167 469.5,212.167 468.5,213.5C 466.902,211.027 465.402,211.027 464,213.5C 463,212.167 462,212.167 461,213.5C 460.333,212.833 459.667,212.167 459,211.5C 455.959,213.23 452.959,214.23 450,214.5C 449.667,213.5 449.333,212.5 449,211.5C 447.662,214.082 445.829,214.749 443.5,213.5C 455.09,205.537 467.424,198.87 480.5,193.5C 490.339,197.086 499.672,201.753 508.5,207.5C 509.088,210.305 507.755,211.972 504.5,212.5 Z"/></g>
<g><path style="opacity:1" fill="#5d66d5" d="M 336.5,202.5 C 343.461,205.647 350.127,209.313 356.5,213.5C 355.91,214.766 355.41,216.099 355,217.5C 353.384,216.455 351.717,215.455 350,214.5C 348.783,215.386 347.449,216.386 346,217.5C 345.395,215.519 344.395,215.185 343,216.5C 341,215.833 339,215.167 337,214.5C 336.667,215.5 336.333,216.5 336,217.5C 332.982,214.889 329.982,214.556 327,216.5C 324.91,215.209 323.576,215.876 323,218.5C 322.019,215.345 320.685,215.012 319,217.5C 317.488,216.743 316.154,215.743 315,214.5C 313.667,218.5 312.333,218.5 311,214.5C 309.768,217.755 307.768,218.088 305,215.5C 303.989,216.337 302.822,216.67 301.5,216.5C 294.529,212.831 287.862,208.831 281.5,204.5C 283.03,203.933 284.53,203.267 286,202.5C 288.949,205.273 291.615,204.94 294,201.5C 295.762,201.944 295.595,202.444 293.5,203C 295.108,203.658 296.275,203.158 297,201.5C 298.171,202.893 299.671,203.727 301.5,204C 300.304,204.654 300.304,205.154 301.5,205.5C 302.807,204.184 304.307,203.184 306,202.5C 307.907,202.421 309.907,202.754 312,203.5C 313.851,201.219 315.518,201.219 317,203.5C 318.333,200.833 319.667,200.833 321,203.5C 322.667,202.833 324.333,202.167 326,201.5C 326.691,203.891 327.691,203.891 329,201.5C 331.269,201.726 333.769,202.059 336.5,202.5 Z"/></g>
<g><path style="opacity:1" fill="#5c64d5" d="M 183.5,193.5 C 183.5,201.833 183.5,210.167 183.5,218.5C 182.778,218.918 182.278,219.584 182,220.5C 178.885,218.395 175.885,218.395 173,220.5C 171.482,220.943 170.315,220.276 169.5,218.5C 166.301,219.799 163.135,219.799 160,218.5C 159.667,219.167 159.333,219.833 159,220.5C 156.959,219.577 154.792,219.244 152.5,219.5C 152.5,211.167 152.5,202.833 152.5,194.5C 154.484,194.383 156.15,195.05 157.5,196.5C 158.192,195.975 158.692,195.308 159,194.5C 160.16,196.797 161.16,196.464 162,193.5C 163.46,195.422 165.127,196.089 167,195.5C 168,194.5 169,193.5 170,192.5C 170.221,195.943 171.221,196.276 173,193.5C 175,194.833 177,194.833 179,193.5C 180.888,195.744 182.388,195.744 183.5,193.5 Z"/></g>
<g><path style="opacity:1" fill="#5e6bd6" d="M 243.5,204.5 C 243.482,212.851 243.815,221.184 244.5,229.5C 242.856,229.286 241.356,229.62 240,230.5C 236.798,228.27 233.298,228.27 229.5,230.5C 226.804,227.929 224.304,228.263 222,231.5C 219.519,229.686 216.685,229.02 213.5,229.5C 213.5,221.5 213.5,213.5 213.5,205.5C 216.577,204.325 219.743,204.325 223,205.5C 224.851,203.219 226.518,203.219 228,205.5C 229.667,202.833 231.333,202.833 233,205.5C 235,204.833 237,204.167 239,203.5C 239.667,206.167 240.333,206.167 241,203.5C 241.671,204.252 242.504,204.586 243.5,204.5 Z"/></g>
<g><path style="opacity:1" fill="#5f71d8" d="M 646.5,208.5 C 646.5,216.167 646.5,223.833 646.5,231.5C 641.68,230.301 636.847,230.634 632,232.5C 630.909,230.654 629.576,229.987 628,230.5C 627.667,231.167 627.333,231.833 627,232.5C 623.292,233.246 619.792,233.246 616.5,232.5C 616.5,224.833 616.5,217.167 616.5,209.5C 617.222,209.918 617.722,210.584 618,211.5C 618.7,209.968 619.866,208.968 621.5,208.5C 623.644,209.953 625.477,209.62 627,207.5C 627.308,208.308 627.808,208.975 628.5,209.5C 631.143,209.196 633.976,208.53 637,207.5C 638.791,209.513 640.125,209.513 641,207.5C 642.699,208.406 644.533,208.739 646.5,208.5 Z"/></g>
<g><path style="opacity:1" fill="#5f72d8" d="M 589.5,207.5 C 589.5,215.5 589.5,223.5 589.5,231.5C 587.204,232.128 584.704,233.128 582,234.5C 581.085,233.672 580.419,232.672 580,231.5C 579,232.833 578,232.833 577,231.5C 576.692,232.308 576.192,232.975 575.5,233.5C 567.435,233.656 559.602,233.323 552,232.5C 551.311,233.357 550.478,234.023 549.5,234.5C 547.629,233.233 545.796,233.233 544,234.5C 543.667,233.833 543.333,233.167 543,232.5C 542.261,233.574 541.261,234.241 540,234.5C 536.344,233.852 532.511,233.852 528.5,234.5C 537.276,228.27 546.609,222.77 556.5,218C 558.229,216.211 558.896,214.044 558.5,211.5C 562.228,210.276 565.728,210.276 569,211.5C 569.667,210.833 570.333,210.167 571,209.5C 572.333,209.5 573.667,209.5 575,209.5C 575.667,210.167 576.333,210.833 577,211.5C 578.113,210.289 579.28,210.289 580.5,211.5C 581.748,210.96 582.915,210.293 584,209.5C 584.333,209.833 584.667,210.167 585,210.5C 585.667,207.833 586.333,207.833 587,210.5C 587.852,209.429 588.685,208.429 589.5,207.5 Z"/></g>
<g><path style="opacity:1" fill="#5f71d8" d="M 504.5,212.5 C 491.006,220.749 477.339,228.749 463.5,236.5C 463.316,234.075 462.649,234.075 461.5,236.5C 459.576,236.894 457.743,236.227 456,234.5C 455.333,235.167 454.667,235.833 454,236.5C 452.305,236.776 450.472,236.443 448.5,235.5C 446.813,235.76 445.313,236.427 444,237.5C 443.667,236.833 443.333,236.167 443,235.5C 439.88,237.714 436.88,237.714 434,235.5C 433.333,236.833 432.667,236.833 432,235.5C 431.309,237.891 430.309,237.891 429,235.5C 422.548,235.931 416.548,235.931 411,235.5C 409.039,237.58 406.872,237.914 404.5,236.5C 416.966,228.094 429.966,220.427 443.5,213.5C 445.829,214.749 447.662,214.082 449,211.5C 449.333,212.5 449.667,213.5 450,214.5C 452.959,214.23 455.959,213.23 459,211.5C 459.667,212.167 460.333,212.833 461,213.5C 462,212.167 463,212.167 464,213.5C 465.402,211.027 466.902,211.027 468.5,213.5C 469.5,212.167 470.5,212.167 471.5,213.5C 472.478,213.023 473.311,212.357 474,211.5C 474.667,212.833 475.333,212.833 476,211.5C 476.333,212.167 476.667,212.833 477,213.5C 478,210.833 479,210.833 480,213.5C 480.308,212.692 480.808,212.025 481.5,211.5C 486.858,212.151 492.025,212.151 497,211.5C 498.333,212.167 499.667,212.833 501,213.5C 501.333,212.833 501.667,212.167 502,211.5C 502.671,212.252 503.504,212.586 504.5,212.5 Z"/></g>
<g><path style="opacity:1" fill="#5f71d8" d="M 356.5,213.5 C 369.901,221.196 383.234,228.862 396.5,236.5C 396.631,237.376 396.298,238.043 395.5,238.5C 395.511,237.559 395.011,236.892 394,236.5C 392.128,237.068 390.295,237.735 388.5,238.5C 387.522,238.023 386.689,237.357 386,236.5C 383.962,237.425 381.629,237.425 379,236.5C 377.166,238.756 375.499,238.756 374,236.5C 372.82,237.684 371.32,238.351 369.5,238.5C 365.756,238.451 362.256,238.118 359,237.5C 357.806,238.43 356.473,239.097 355,239.5C 350.174,239.64 345.341,239.307 340.5,238.5C 327.006,231.923 314.006,224.59 301.5,216.5C 302.822,216.67 303.989,216.337 305,215.5C 307.768,218.088 309.768,217.755 311,214.5C 312.333,218.5 313.667,218.5 315,214.5C 316.154,215.743 317.488,216.743 319,217.5C 320.685,215.012 322.019,215.345 323,218.5C 323.576,215.876 324.91,215.209 327,216.5C 329.982,214.556 332.982,214.889 336,217.5C 336.333,216.5 336.667,215.5 337,214.5C 339,215.167 341,215.833 343,216.5C 344.395,215.185 345.395,215.519 346,217.5C 347.449,216.386 348.783,215.386 350,214.5C 351.717,215.455 353.384,216.455 355,217.5C 355.41,216.099 355.91,214.766 356.5,213.5 Z"/></g>
<g><path style="opacity:1" fill="#5f71d8" d="M 183.5,218.5 C 183.5,226.167 183.5,233.833 183.5,241.5C 181.123,241.784 178.956,241.784 177,241.5C 176.333,242.167 175.667,242.833 175,243.5C 173.667,242.167 172.333,242.167 171,243.5C 170.333,242.833 169.667,242.167 169,241.5C 166.405,241.003 163.905,241.67 161.5,243.5C 159.941,242.926 158.441,242.26 157,241.5C 155.89,243.037 154.39,243.703 152.5,243.5C 152.5,235.5 152.5,227.5 152.5,219.5C 154.792,219.244 156.959,219.577 159,220.5C 159.333,219.833 159.667,219.167 160,218.5C 163.135,219.799 166.301,219.799 169.5,218.5C 170.315,220.276 171.482,220.943 173,220.5C 175.885,218.395 178.885,218.395 182,220.5C 182.278,219.584 182.778,218.918 183.5,218.5 Z"/></g>
<g><path style="opacity:1" fill="#6079da" d="M 589.5,231.5 C 589.141,233.371 588.141,234.871 586.5,236C 580.611,239.392 574.611,242.559 568.5,245.5C 564.575,244.234 560.741,244.567 557,246.5C 554,244.827 551,244.16 548,244.5C 547.667,245.167 547.333,245.833 547,246.5C 545.846,245.257 544.512,244.257 543,243.5C 542.213,244.711 541.546,245.711 541,246.5C 540.055,246.095 539.388,245.428 539,244.5C 537.333,245.833 535.667,245.833 534,244.5C 533.612,245.428 532.945,246.095 532,246.5C 529.73,245.725 527.563,245.392 525.5,245.5C 524.808,246.025 524.308,246.692 524,247.5C 522.434,248.061 521.101,247.394 520,245.5C 517.693,246.145 515.193,246.145 512.5,245.5C 510.803,246.912 509.136,247.246 507.5,246.5C 514.297,242.264 521.297,238.264 528.5,234.5C 532.511,233.852 536.344,233.852 540,234.5C 541.261,234.241 542.261,233.574 543,232.5C 543.333,233.167 543.667,233.833 544,234.5C 545.796,233.233 547.629,233.233 549.5,234.5C 550.478,234.023 551.311,233.357 552,232.5C 559.602,233.323 567.435,233.656 575.5,233.5C 576.192,232.975 576.692,232.308 577,231.5C 578,232.833 579,232.833 580,231.5C 580.419,232.672 581.085,233.672 582,234.5C 584.704,233.128 587.204,232.128 589.5,231.5 Z"/></g>
<g><path style="opacity:1" fill="#6079da" d="M 463.5,236.5 C 456.068,241.27 448.401,245.603 440.5,249.5C 439.923,247.348 438.756,247.015 437,248.5C 436.309,246.109 435.309,246.109 434,248.5C 432.75,247.427 431.416,247.427 430,248.5C 429.05,247.978 428.216,247.311 427.5,246.5C 426.304,246.846 426.304,247.346 427.5,248C 425.765,248.651 424.098,248.485 422.5,247.5C 421.808,248.025 421.308,248.692 421,249.5C 419.333,248.167 417.667,248.167 416,249.5C 413.515,247.244 411.182,247.244 409,249.5C 406.414,249.339 403.914,249.339 401.5,249.5C 400.353,249.182 399.519,248.516 399,247.5C 396.92,249.973 394.754,249.973 392.5,247.5C 391.304,247.846 391.304,248.346 392.5,249C 391.833,249.167 391.167,249.333 390.5,249.5C 387.969,249.045 385.469,248.712 383,248.5C 382.125,250.513 380.791,250.513 379,248.5C 376.452,248.168 373.952,248.835 371.5,250.5C 369.813,250.24 368.313,249.573 367,248.5C 365.112,250.922 363.112,250.922 361,248.5C 360.617,249.056 360.117,249.389 359.5,249.5C 352.433,247.1 346.1,243.433 340.5,238.5C 345.341,239.307 350.174,239.64 355,239.5C 356.473,239.097 357.806,238.43 359,237.5C 362.256,238.118 365.756,238.451 369.5,238.5C 371.32,238.351 372.82,237.684 374,236.5C 375.499,238.756 377.166,238.756 379,236.5C 381.629,237.425 383.962,237.425 386,236.5C 386.689,237.357 387.522,238.023 388.5,238.5C 390.295,237.735 392.128,237.068 394,236.5C 395.011,236.892 395.511,237.559 395.5,238.5C 396.298,238.043 396.631,237.376 396.5,236.5C 397.721,237.028 398.887,237.695 400,238.5C 401.33,237.418 402.83,236.751 404.5,236.5C 406.872,237.914 409.039,237.58 411,235.5C 416.548,235.931 422.548,235.931 429,235.5C 430.309,237.891 431.309,237.891 432,235.5C 432.667,236.833 433.333,236.833 434,235.5C 436.88,237.714 439.88,237.714 443,235.5C 443.333,236.167 443.667,236.833 444,237.5C 445.313,236.427 446.813,235.76 448.5,235.5C 450.472,236.443 452.305,236.776 454,236.5C 454.667,235.833 455.333,235.167 456,234.5C 457.743,236.227 459.576,236.894 461.5,236.5C 462.649,234.075 463.316,234.075 463.5,236.5 Z"/></g>
<g><path style="opacity:1" fill="#6077da" d="M 244.5,229.5 C 244.5,237.5 244.5,245.5 244.5,253.5C 243.849,252.909 243.182,252.243 242.5,251.5C 240.298,252.78 238.132,252.78 236,251.5C 235.717,254.742 234.883,255.076 233.5,252.5C 231.329,252.727 229.162,253.06 227,253.5C 224.997,251.199 223.163,251.199 221.5,253.5C 219.844,251.978 218.677,252.311 218,254.5C 216.586,253.587 215.086,253.587 213.5,254.5C 213.5,246.167 213.5,237.833 213.5,229.5C 216.685,229.02 219.519,229.686 222,231.5C 224.304,228.263 226.804,227.929 229.5,230.5C 233.298,228.27 236.798,228.27 240,230.5C 241.356,229.62 242.856,229.286 244.5,229.5 Z"/></g>
<g><path style="opacity:1" fill="#617edc" d="M 646.5,231.5 C 646.5,239.833 646.5,248.167 646.5,256.5C 643.448,256.533 640.448,256.866 637.5,257.5C 636.459,255.009 635.626,255.009 635,257.5C 632.288,256.666 629.621,257 627,258.5C 626.667,257.833 626.333,257.167 626,256.5C 624.887,257.711 623.72,257.711 622.5,256.5C 620.414,258.805 617.914,258.805 615,256.5C 614.333,257.167 613.667,257.833 613,258.5C 611.665,257.92 610.498,257.587 609.5,257.5C 611.435,256.19 613.435,254.857 615.5,253.5C 616.497,246.532 616.83,239.532 616.5,232.5C 619.792,233.246 623.292,233.246 627,232.5C 627.333,231.833 627.667,231.167 628,230.5C 629.576,229.987 630.909,230.654 632,232.5C 636.847,230.634 641.68,230.301 646.5,231.5 Z"/></g>
<g><path style="opacity:1" fill="#6180dc" d="M 568.5,245.5 C 560.864,250.656 552.864,255.323 544.5,259.5C 543.006,258.601 541.506,258.935 540,260.5C 538.667,257.833 537.333,257.833 536,260.5C 535.026,258.122 534.359,258.456 534,261.5C 533.653,259.82 532.653,258.82 531,258.5C 529.85,259.424 528.85,259.424 528,258.5C 527.692,259.308 527.192,259.975 526.5,260.5C 525.575,259.359 524.741,259.359 524,260.5C 523.333,257.833 522.667,257.833 522,260.5C 521.667,259.833 521.333,259.167 521,258.5C 518.667,259.833 516.333,259.833 514,258.5C 513.667,259.167 513.333,259.833 513,260.5C 510.831,260.711 508.497,260.378 506,259.5C 504.674,259.755 503.674,260.422 503,261.5C 501.686,260.687 500.519,259.687 499.5,258.5C 497.194,261.23 494.861,261.564 492.5,259.5C 490.833,260.167 489.167,260.833 487.5,261.5C 486.139,261.212 484.806,260.879 483.5,260.5C 491.164,255.332 499.164,250.665 507.5,246.5C 509.136,247.246 510.803,246.912 512.5,245.5C 515.193,246.145 517.693,246.145 520,245.5C 521.101,247.394 522.434,248.061 524,247.5C 524.308,246.692 524.808,246.025 525.5,245.5C 527.563,245.392 529.73,245.725 532,246.5C 532.945,246.095 533.612,245.428 534,244.5C 535.667,245.833 537.333,245.833 539,244.5C 539.388,245.428 540.055,246.095 541,246.5C 541.546,245.711 542.213,244.711 543,243.5C 544.512,244.257 545.846,245.257 547,246.5C 547.333,245.833 547.667,245.167 548,244.5C 551,244.16 554,244.827 557,246.5C 560.741,244.567 564.575,244.234 568.5,245.5 Z"/></g>
<g><path style="opacity:1" fill="#6180dc" d="M 440.5,249.5 C 427.093,257.712 413.426,265.712 399.5,273.5C 385.865,265.836 372.532,257.836 359.5,249.5C 360.117,249.389 360.617,249.056 361,248.5C 363.112,250.922 365.112,250.922 367,248.5C 368.313,249.573 369.813,250.24 371.5,250.5C 373.952,248.835 376.452,248.168 379,248.5C 380.791,250.513 382.125,250.513 383,248.5C 385.469,248.712 387.969,249.045 390.5,249.5C 391.167,249.333 391.833,249.167 392.5,249C 391.304,248.346 391.304,247.846 392.5,247.5C 394.754,249.973 396.92,249.973 399,247.5C 399.519,248.516 400.353,249.182 401.5,249.5C 403.914,249.339 406.414,249.339 409,249.5C 411.182,247.244 413.515,247.244 416,249.5C 417.667,248.167 419.333,248.167 421,249.5C 421.308,248.692 421.808,248.025 422.5,247.5C 424.098,248.485 425.765,248.651 427.5,248C 426.304,247.346 426.304,246.846 427.5,246.5C 428.216,247.311 429.05,247.978 430,248.5C 431.416,247.427 432.75,247.427 434,248.5C 435.309,246.109 436.309,246.109 437,248.5C 438.756,247.015 439.923,247.348 440.5,249.5 Z"/></g>
<g><path style="opacity:1" fill="#617edc" d="M 322.5,263.5 C 322.007,265.49 320.84,265.49 319,263.5C 318,264.5 317,265.5 316,266.5C 314.386,263.175 312.386,262.842 310,265.5C 308.057,263.285 306.391,263.285 305,265.5C 304.667,264.833 304.333,264.167 304,263.5C 302.333,264.167 300.667,264.833 299,265.5C 298.309,263.109 297.309,263.109 296,265.5C 294.667,262.833 293.333,262.833 292,265.5C 289.704,265.066 287.038,264.732 284,264.5C 282.684,267.028 281.517,267.028 280.5,264.5C 278.164,264.623 275.831,264.956 273.5,265.5C 273.5,255.833 273.5,246.167 273.5,236.5C 290.213,244.693 306.547,253.693 322.5,263.5 Z"/></g>
<g><path style="opacity:1" fill="#617ddc" d="M 183.5,241.5 C 183.5,249.833 183.5,258.167 183.5,266.5C 181.555,267.065 179.388,267.065 177,266.5C 175.527,266.903 174.194,267.57 173,268.5C 171.984,267.366 171.317,267.699 171,269.5C 169.526,266.675 168.026,266.342 166.5,268.5C 165.522,268.023 164.689,267.357 164,266.5C 163.667,267.167 163.333,267.833 163,268.5C 160.717,267.281 158.384,267.281 156,268.5C 154.923,267.571 153.756,266.904 152.5,266.5C 152.5,258.833 152.5,251.167 152.5,243.5C 154.39,243.703 155.89,243.037 157,241.5C 158.441,242.26 159.941,242.926 161.5,243.5C 163.905,241.67 166.405,241.003 169,241.5C 169.667,242.167 170.333,242.833 171,243.5C 172.333,242.167 173.667,242.167 175,243.5C 175.667,242.833 176.333,242.167 177,241.5C 178.956,241.784 181.123,241.784 183.5,241.5 Z"/></g>
<g><path style="opacity:1" fill="#6284dd" d="M 244.5,253.5 C 244.5,261.5 244.5,269.5 244.5,277.5C 241.347,277.078 238.181,276.745 235,276.5C 233.105,276.615 231.438,277.282 230,278.5C 229.009,277.061 227.676,276.061 226,275.5C 224.237,276.944 222.237,277.944 220,278.5C 219.692,277.692 219.192,277.025 218.5,276.5C 216.735,277.026 215.068,277.359 213.5,277.5C 213.5,269.833 213.5,262.167 213.5,254.5C 215.086,253.587 216.586,253.587 218,254.5C 218.677,252.311 219.844,251.978 221.5,253.5C 223.163,251.199 224.997,251.199 227,253.5C 229.162,253.06 231.329,252.727 233.5,252.5C 234.883,255.076 235.717,254.742 236,251.5C 238.132,252.78 240.298,252.78 242.5,251.5C 243.182,252.243 243.849,252.909 244.5,253.5 Z"/></g>
<g><path style="opacity:1" fill="#638adf" d="M 646.5,256.5 C 646.666,261.511 646.499,266.511 646,271.5C 640.019,275.24 633.852,278.573 627.5,281.5C 626.02,279.397 624.853,279.397 624,281.5C 621.333,280.167 618.667,280.167 616,281.5C 614.691,279.109 613.691,279.109 613,281.5C 611.482,281.943 610.315,281.276 609.5,279.5C 607.172,281.8 605.005,281.8 603,279.5C 599.53,280.952 596.197,281.952 593,282.5C 592.692,281.692 592.192,281.025 591.5,280.5C 590.575,281.641 589.741,281.641 589,280.5C 587.221,283.276 586.221,282.943 586,279.5C 583.832,281.455 581.498,282.121 579,281.5C 577.691,283.891 576.691,283.891 576,281.5C 572.853,281.741 569.686,282.075 566.5,282.5C 580.334,273.413 594.667,265.079 609.5,257.5C 610.498,257.587 611.665,257.92 613,258.5C 613.667,257.833 614.333,257.167 615,256.5C 617.914,258.805 620.414,258.805 622.5,256.5C 623.72,257.711 624.887,257.711 626,256.5C 626.333,257.167 626.667,257.833 627,258.5C 629.621,257 632.288,256.666 635,257.5C 635.626,255.009 636.459,255.009 637.5,257.5C 640.448,256.866 643.448,256.533 646.5,256.5 Z"/></g>
<g><path style="opacity:1" fill="#638adf" d="M 544.5,259.5 C 530.334,268.084 516,276.418 501.5,284.5C 500.02,282.397 498.853,282.397 498,284.5C 497.667,283.833 497.333,283.167 497,282.5C 491.23,283.68 485.397,283.68 479.5,282.5C 478.808,283.025 478.308,283.692 478,284.5C 476.755,284.539 475.422,284.205 474,283.5C 473.619,284.482 472.786,285.148 471.5,285.5C 468.812,284.85 466.312,284.85 464,285.5C 462.915,284.707 461.748,284.04 460.5,283.5C 458.073,284.64 455.573,284.64 453,283.5C 451.915,284.293 450.748,284.96 449.5,285.5C 446.564,285.622 443.897,285.289 441.5,284.5C 455.199,275.984 469.199,267.984 483.5,260.5C 484.806,260.879 486.139,261.212 487.5,261.5C 489.167,260.833 490.833,260.167 492.5,259.5C 494.861,261.564 497.194,261.23 499.5,258.5C 500.519,259.687 501.686,260.687 503,261.5C 503.674,260.422 504.674,259.755 506,259.5C 508.497,260.378 510.831,260.711 513,260.5C 513.333,259.833 513.667,259.167 514,258.5C 516.333,259.833 518.667,259.833 521,258.5C 521.333,259.167 521.667,259.833 522,260.5C 522.667,257.833 523.333,257.833 524,260.5C 524.741,259.359 525.575,259.359 526.5,260.5C 527.192,259.975 527.692,259.308 528,258.5C 528.85,259.424 529.85,259.424 531,258.5C 532.653,258.82 533.653,259.82 534,261.5C 534.359,258.456 535.026,258.122 536,260.5C 537.333,257.833 538.667,257.833 540,260.5C 541.506,258.935 543.006,258.601 544.5,259.5 Z"/></g>
<g><path style="opacity:1" fill="#638adf" d="M 322.5,263.5 C 335.7,270.929 348.7,278.596 361.5,286.5C 358.422,287.334 355.089,287.334 351.5,286.5C 348.905,288.433 346.572,288.433 344.5,286.5C 341.223,287.254 337.89,287.754 334.5,288C 334,288.5 333.5,289 333,289.5C 332.098,286.196 330.764,285.862 329,288.5C 327.715,288.05 326.548,287.383 325.5,286.5C 319.023,286.101 312.356,286.768 305.5,288.5C 295.425,283.293 285.425,277.793 275.5,272C 273.771,270.211 273.104,268.044 273.5,265.5C 275.831,264.956 278.164,264.623 280.5,264.5C 281.517,267.028 282.684,267.028 284,264.5C 287.038,264.732 289.704,265.066 292,265.5C 293.333,262.833 294.667,262.833 296,265.5C 297.309,263.109 298.309,263.109 299,265.5C 300.667,264.833 302.333,264.167 304,263.5C 304.333,264.167 304.667,264.833 305,265.5C 306.391,263.285 308.057,263.285 310,265.5C 312.386,262.842 314.386,263.175 316,266.5C 317,265.5 318,264.5 319,263.5C 320.84,265.49 322.007,265.49 322.5,263.5 Z"/></g>
<g><path style="opacity:1" fill="#638adf" d="M 152.5,266.5 C 153.756,266.904 154.923,267.571 156,268.5C 158.384,267.281 160.717,267.281 163,268.5C 163.333,267.833 163.667,267.167 164,266.5C 164.689,267.357 165.522,268.023 166.5,268.5C 168.026,266.342 169.526,266.675 171,269.5C 171.317,267.699 171.984,267.366 173,268.5C 174.194,267.57 175.527,266.903 177,266.5C 179.388,267.065 181.555,267.065 183.5,266.5C 183.5,274.167 183.5,281.833 183.5,289.5C 181.9,290.252 180.4,291.252 179,292.5C 176.624,290.339 173.957,290.339 171,292.5C 169.559,291.74 168.059,291.074 166.5,290.5C 162.216,291.134 157.549,291.468 152.5,291.5C 152.5,283.167 152.5,274.833 152.5,266.5 Z"/></g>
<g><path style="opacity:1" fill="#6490e1" d="M 244.5,277.5 C 244.5,284.833 244.5,292.167 244.5,299.5C 243.778,299.918 243.278,300.584 243,301.5C 233.143,301.151 223.31,301.151 213.5,301.5C 213.5,293.5 213.5,285.5 213.5,277.5C 215.068,277.359 216.735,277.026 218.5,276.5C 219.192,277.025 219.692,277.692 220,278.5C 222.237,277.944 224.237,276.944 226,275.5C 227.676,276.061 229.009,277.061 230,278.5C 231.438,277.282 233.105,276.615 235,276.5C 238.181,276.745 241.347,277.078 244.5,277.5 Z"/></g>
<g><path style="opacity:1" fill="#6596e2" d="M 627.5,281.5 C 615.789,288.531 603.789,295.365 591.5,302C 589.308,303.067 587.642,304.567 586.5,306.5C 585.175,305.047 584.342,305.381 584,307.5C 583.333,306.167 582.667,306.167 582,307.5C 581.667,306.833 581.333,306.167 581,305.5C 578.615,307.539 576.448,307.539 574.5,305.5C 570.618,308.044 566.785,308.044 563,305.5C 561.333,306.5 559.667,307.5 558,308.5C 557.329,307.748 556.496,307.414 555.5,307.5C 555.226,300.77 555.726,294.103 557,287.5C 559.826,285.171 562.992,283.504 566.5,282.5C 569.686,282.075 572.853,281.741 576,281.5C 576.691,283.891 577.691,283.891 579,281.5C 581.498,282.121 583.832,281.455 586,279.5C 586.221,282.943 587.221,283.276 589,280.5C 589.741,281.641 590.575,281.641 591.5,280.5C 592.192,281.025 592.692,281.692 593,282.5C 596.197,281.952 599.53,280.952 603,279.5C 605.005,281.8 607.172,281.8 609.5,279.5C 610.315,281.276 611.482,281.943 613,281.5C 613.691,279.109 614.691,279.109 616,281.5C 618.667,280.167 621.333,280.167 624,281.5C 624.853,279.397 626.02,279.397 627.5,281.5 Z"/></g>
<g><path style="opacity:1" fill="#6596e2" d="M 501.5,284.5 C 487.674,292.677 473.674,300.677 459.5,308.5C 458.504,308.586 457.671,308.252 457,307.5C 455.47,308.636 454.137,309.636 453,310.5C 452.333,309.167 451.667,309.167 451,310.5C 450.667,309.833 450.333,309.167 450,308.5C 448.204,309.767 446.371,309.767 444.5,308.5C 443.252,309.04 442.085,309.707 441,310.5C 438.677,310.669 436.344,310.003 434,308.5C 432.874,309.944 431.374,310.61 429.5,310.5C 427.395,309.986 425.561,309.653 424,309.5C 423.333,312.167 422.667,312.167 422,309.5C 419.837,310.768 417.67,310.768 415.5,309.5C 415.207,305.563 415.54,301.73 416.5,298C 424.887,293.475 433.221,288.975 441.5,284.5C 443.897,285.289 446.564,285.622 449.5,285.5C 450.748,284.96 451.915,284.293 453,283.5C 455.573,284.64 458.073,284.64 460.5,283.5C 461.748,284.04 462.915,284.707 464,285.5C 466.312,284.85 468.812,284.85 471.5,285.5C 472.786,285.148 473.619,284.482 474,283.5C 475.422,284.205 476.755,284.539 478,284.5C 478.308,283.692 478.808,283.025 479.5,282.5C 485.397,283.68 491.23,283.68 497,282.5C 497.333,283.167 497.667,283.833 498,284.5C 498.853,282.397 500.02,282.397 501.5,284.5 Z"/></g>
<g><path style="opacity:1" fill="#6596e2" d="M 361.5,286.5 C 369.184,290.093 376.684,294.093 384,298.5C 384.499,302.486 384.666,306.486 384.5,310.5C 382.356,309.802 380.022,309.469 377.5,309.5C 375.908,311.562 374.075,311.895 372,310.5C 370.691,312.891 369.691,312.891 369,310.5C 368.667,311.167 368.333,311.833 368,312.5C 363.813,311.281 359.813,310.615 356,310.5C 352.56,311.477 349.393,312.143 346.5,312.5C 332.634,304.737 318.967,296.737 305.5,288.5C 312.356,286.768 319.023,286.101 325.5,286.5C 326.548,287.383 327.715,288.05 329,288.5C 330.764,285.862 332.098,286.196 333,289.5C 333.5,289 334,288.5 334.5,288C 337.89,287.754 341.223,287.254 344.5,286.5C 346.572,288.433 348.905,288.433 351.5,286.5C 355.089,287.334 358.422,287.334 361.5,286.5 Z"/></g>
<g><path style="opacity:1" fill="#6596e2" d="M 183.5,289.5 C 183.5,298.167 183.5,306.833 183.5,315.5C 180.531,314.1 177.364,314.434 174,316.5C 172.667,315.833 171.333,315.167 170,314.5C 169.676,316.569 168.842,316.902 167.5,315.5C 166.146,317.184 164.479,317.684 162.5,317C 163.34,315.334 162.84,315.167 161,316.5C 160.667,315.833 160.333,315.167 160,314.5C 158.037,317.946 156.704,317.946 156,314.5C 155.29,315.973 154.124,316.64 152.5,316.5C 152.5,308.167 152.5,299.833 152.5,291.5C 157.549,291.468 162.216,291.134 166.5,290.5C 168.059,291.074 169.559,291.74 171,292.5C 173.957,290.339 176.624,290.339 179,292.5C 180.4,291.252 181.9,290.252 183.5,289.5 Z"/></g>
<g><path style="opacity:1" fill="#669de4" d="M 244.5,299.5 C 244.5,307.833 244.5,316.167 244.5,324.5C 243.542,324.953 242.708,325.619 242,326.5C 240.209,324.487 238.875,324.487 238,326.5C 236.667,325.167 235.333,325.167 234,326.5C 233.333,323.833 232.667,323.833 232,326.5C 228.935,326.828 226.102,326.495 223.5,325.5C 222.808,326.025 222.308,326.692 222,327.5C 219.177,324.939 216.343,324.939 213.5,327.5C 213.5,318.833 213.5,310.167 213.5,301.5C 223.31,301.151 233.143,301.151 243,301.5C 243.278,300.584 243.778,299.918 244.5,299.5 Z"/></g>
<g><path style="opacity:1" fill="#68a6e7" d="M 646.5,339.5 C 644.983,339.489 643.816,338.823 643,337.5C 641.445,339.146 639.779,339.479 638,338.5C 637.692,339.308 637.192,339.975 636.5,340.5C 635.575,339.359 634.741,339.359 634,340.5C 633,337.833 632,337.833 631,340.5C 630.333,339.833 629.667,339.167 629,338.5C 627.667,339.833 626.333,339.833 625,338.5C 623.477,340.62 621.644,340.953 619.5,339.5C 618.787,341.435 617.787,341.768 616.5,340.5C 616.171,334.463 616.504,328.463 617.5,322.5C 626.75,316.376 636.417,311.042 646.5,306.5C 646.5,317.5 646.5,328.5 646.5,339.5 Z"/></g>
<g><path style="opacity:1" fill="#68a3e6" d="M 586.5,306.5 C 586.5,314.167 586.5,321.833 586.5,329.5C 585.213,328.472 584.046,328.805 583,330.5C 581.715,330.05 580.548,329.383 579.5,328.5C 578.056,329.38 576.556,330.38 575,331.5C 573.715,331.05 572.548,330.383 571.5,329.5C 569.012,329.274 566.512,329.94 564,331.5C 561.981,329.69 559.648,329.69 557,331.5C 556.617,330.944 556.117,330.611 555.5,330.5C 555.5,322.833 555.5,315.167 555.5,307.5C 556.496,307.414 557.329,307.748 558,308.5C 559.667,307.5 561.333,306.5 563,305.5C 566.785,308.044 570.618,308.044 574.5,305.5C 576.448,307.539 578.615,307.539 581,305.5C 581.333,306.167 581.667,306.833 582,307.5C 582.667,306.167 583.333,306.167 584,307.5C 584.342,305.381 585.175,305.047 586.5,306.5 Z"/></g>
<g><path style="opacity:1" fill="#68a3e6" d="M 459.5,308.5 C 455.398,311.392 451.065,314.059 446.5,316.5C 445.505,322.128 445.171,327.794 445.5,333.5C 442.115,333.92 438.948,334.253 436,334.5C 433.778,331.956 431.611,331.956 429.5,334.5C 428.522,334.023 427.689,333.357 427,332.5C 426.193,334.22 424.693,334.554 422.5,333.5C 421.006,333.709 419.839,334.376 419,335.5C 418.667,334.5 418.333,333.5 418,332.5C 417.292,333.381 416.458,334.047 415.5,334.5C 415.5,326.167 415.5,317.833 415.5,309.5C 417.67,310.768 419.837,310.768 422,309.5C 422.667,312.167 423.333,312.167 424,309.5C 425.561,309.653 427.395,309.986 429.5,310.5C 431.374,310.61 432.874,309.944 434,308.5C 436.344,310.003 438.677,310.669 441,310.5C 442.085,309.707 443.252,309.04 444.5,308.5C 446.371,309.767 448.204,309.767 450,308.5C 450.333,309.167 450.667,309.833 451,310.5C 451.667,309.167 452.333,309.167 453,310.5C 454.137,309.636 455.47,308.636 457,307.5C 457.671,308.252 458.504,308.586 459.5,308.5 Z"/></g>
<g><path style="opacity:1" fill="#68a3e6" d="M 384.5,310.5 C 384.5,318.5 384.5,326.5 384.5,334.5C 382.438,334.003 380.271,333.67 378,333.5C 376.324,334.061 374.991,335.061 374,336.5C 372.688,334.342 371.022,334.009 369,335.5C 368.692,334.692 368.192,334.025 367.5,333.5C 365.833,334.833 364.167,334.833 362.5,333.5C 361.808,334.025 361.308,334.692 361,335.5C 359.211,333.771 357.044,333.104 354.5,333.5C 354.666,328.156 354.499,322.823 354,317.5C 351.574,315.548 349.074,313.881 346.5,312.5C 349.393,312.143 352.56,311.477 356,310.5C 359.813,310.615 363.813,311.281 368,312.5C 368.333,311.833 368.667,311.167 369,310.5C 369.691,312.891 370.691,312.891 372,310.5C 374.075,311.895 375.908,311.562 377.5,309.5C 380.022,309.469 382.356,309.802 384.5,310.5 Z"/></g>
<g><path style="opacity:1" fill="#68a3e6" d="M 183.5,315.5 C 183.5,323.167 183.5,330.833 183.5,338.5C 182.188,338.824 181.355,339.491 181,340.5C 179.968,338.855 178.801,338.522 177.5,339.5C 176.167,338.833 174.833,338.167 173.5,337.5C 173.089,338.262 172.923,339.262 173,340.5C 171.488,339.743 170.154,338.743 169,337.5C 168.641,340.544 167.974,340.878 167,338.5C 165.937,339.438 164.77,340.438 163.5,341.5C 161.566,341.099 160.066,340.099 159,338.5C 157.494,341.474 155.828,341.807 154,339.5C 153.722,340.416 153.222,341.082 152.5,341.5C 152.5,333.167 152.5,324.833 152.5,316.5C 154.124,316.64 155.29,315.973 156,314.5C 156.704,317.946 158.037,317.946 160,314.5C 160.333,315.167 160.667,315.833 161,316.5C 162.84,315.167 163.34,315.334 162.5,317C 164.479,317.684 166.146,317.184 167.5,315.5C 168.842,316.902 169.676,316.569 170,314.5C 171.333,315.167 172.667,315.833 174,316.5C 177.364,314.434 180.531,314.1 183.5,315.5 Z"/></g>
<g><path style="opacity:1" fill="#69a9e7" d="M 244.5,324.5 C 244.5,332.833 244.5,341.167 244.5,349.5C 241.433,346.825 238.933,347.159 237,350.5C 236.667,349.833 236.333,349.167 236,348.5C 234.192,348.888 232.525,348.888 231,348.5C 229.437,351.044 227.937,351.044 226.5,348.5C 224.902,350.973 223.402,350.973 222,348.5C 220.899,350.394 219.566,351.061 218,350.5C 216.568,348.069 215.068,348.069 213.5,350.5C 213.5,342.833 213.5,335.167 213.5,327.5C 216.343,324.939 219.177,324.939 222,327.5C 222.308,326.692 222.808,326.025 223.5,325.5C 226.102,326.495 228.935,326.828 232,326.5C 232.667,323.833 233.333,323.833 234,326.5C 235.333,325.167 236.667,325.167 238,326.5C 238.875,324.487 240.209,324.487 242,326.5C 242.708,325.619 243.542,324.953 244.5,324.5 Z"/></g>
<g><path style="opacity:1" fill="#6ab0e9" d="M 586.5,329.5 C 586.5,337.5 586.5,345.5 586.5,353.5C 585.778,353.918 585.278,354.584 585,355.5C 584.125,353.487 582.791,353.487 581,355.5C 579.429,355.75 577.929,355.083 576.5,353.5C 574.945,353.722 573.611,354.389 572.5,355.5C 570.356,354.047 568.523,354.38 567,356.5C 566.311,355.643 565.478,354.977 564.5,354.5C 563.575,355.641 562.741,355.641 562,354.5C 560.667,357.167 559.333,357.167 558,354.5C 557.292,355.381 556.458,356.047 555.5,356.5C 555.5,347.833 555.5,339.167 555.5,330.5C 556.117,330.611 556.617,330.944 557,331.5C 559.648,329.69 561.981,329.69 564,331.5C 566.512,329.94 569.012,329.274 571.5,329.5C 572.548,330.383 573.715,331.05 575,331.5C 576.556,330.38 578.056,329.38 579.5,328.5C 580.548,329.383 581.715,330.05 583,330.5C 584.046,328.805 585.213,328.472 586.5,329.5 Z"/></g>
<g><path style="opacity:1" fill="#6ab0e9" d="M 445.5,333.5 C 445.5,341.5 445.5,349.5 445.5,357.5C 443.694,358.206 441.861,357.873 440,356.5C 439.667,357.167 439.333,357.833 439,358.5C 437.455,358.634 435.788,358.3 434,357.5C 432.739,357.759 431.739,358.426 431,359.5C 430.085,358.672 429.419,357.672 429,356.5C 425.968,359.283 422.801,359.616 419.5,357.5C 418.522,357.977 417.689,358.643 417,359.5C 416.583,358.244 415.75,357.577 414.5,357.5C 414.309,349.799 414.642,342.132 415.5,334.5C 416.458,334.047 417.292,333.381 418,332.5C 418.333,333.5 418.667,334.5 419,335.5C 419.839,334.376 421.006,333.709 422.5,333.5C 424.693,334.554 426.193,334.22 427,332.5C 427.689,333.357 428.522,334.023 429.5,334.5C 431.611,331.956 433.778,331.956 436,334.5C 438.948,334.253 442.115,333.92 445.5,333.5 Z"/></g>
<g><path style="opacity:1" fill="#6ab0e9" d="M 354.5,333.5 C 357.044,333.104 359.211,333.771 361,335.5C 361.308,334.692 361.808,334.025 362.5,333.5C 364.167,334.833 365.833,334.833 367.5,333.5C 368.192,334.025 368.692,334.692 369,335.5C 371.022,334.009 372.688,334.342 374,336.5C 374.991,335.061 376.324,334.061 378,333.5C 380.271,333.67 382.438,334.003 384.5,334.5C 384.5,342.5 384.5,350.5 384.5,358.5C 382.983,358.511 381.816,359.177 381,360.5C 379.209,358.487 377.875,358.487 377,360.5C 374.932,359.606 372.765,358.94 370.5,358.5C 369.214,358.852 368.381,359.518 368,360.5C 363.576,360.552 359.076,360.219 354.5,359.5C 354.5,350.833 354.5,342.167 354.5,333.5 Z"/></g>
<g><path style="opacity:1" fill="#6bb6eb" d="M 646.5,339.5 C 646.5,348.167 646.5,356.833 646.5,365.5C 643.775,365.458 640.942,364.791 638,363.5C 637.047,365.592 635.714,365.925 634,364.5C 633.085,365.328 632.419,366.328 632,367.5C 631,365.833 629.667,364.5 628,363.5C 627.692,364.308 627.192,364.975 626.5,365.5C 624.622,365.377 622.789,365.377 621,365.5C 620.667,364.833 620.333,364.167 620,363.5C 619.467,365.939 618.3,366.605 616.5,365.5C 616.5,357.167 616.5,348.833 616.5,340.5C 617.787,341.768 618.787,341.435 619.5,339.5C 621.644,340.953 623.477,340.62 625,338.5C 626.333,339.833 627.667,339.833 629,338.5C 629.667,339.167 630.333,339.833 631,340.5C 632,337.833 633,337.833 634,340.5C 634.741,339.359 635.575,339.359 636.5,340.5C 637.192,339.975 637.692,339.308 638,338.5C 639.779,339.479 641.445,339.146 643,337.5C 643.816,338.823 644.983,339.489 646.5,339.5 Z"/></g>
<g><path style="opacity:1" fill="#6ab0e9" d="M 183.5,338.5 C 183.5,346.833 183.5,355.167 183.5,363.5C 181.033,363.353 178.7,363.686 176.5,364.5C 176.167,363.833 175.833,363.167 175.5,362.5C 174.184,365.028 173.017,365.028 172,362.5C 169.577,364.994 167.244,364.994 165,362.5C 162.566,364.023 159.899,365.023 157,365.5C 156.333,364.833 155.667,364.167 155,363.5C 154.583,364.756 153.75,365.423 152.5,365.5C 152.5,357.5 152.5,349.5 152.5,341.5C 153.222,341.082 153.722,340.416 154,339.5C 155.828,341.807 157.494,341.474 159,338.5C 160.066,340.099 161.566,341.099 163.5,341.5C 164.77,340.438 165.937,339.438 167,338.5C 167.974,340.878 168.641,340.544 169,337.5C 170.154,338.743 171.488,339.743 173,340.5C 172.923,339.262 173.089,338.262 173.5,337.5C 174.833,338.167 176.167,338.833 177.5,339.5C 178.801,338.522 179.968,338.855 181,340.5C 181.355,339.491 182.188,338.824 183.5,338.5 Z"/></g>
<g><path style="opacity:1" fill="#6bb6eb" d="M 244.5,349.5 C 244.5,357.5 244.5,365.5 244.5,373.5C 238.648,373.321 232.981,373.654 227.5,374.5C 226.808,373.975 226.308,373.308 226,372.5C 223.747,375.57 221.247,375.904 218.5,373.5C 217.176,375.446 215.51,375.446 213.5,373.5C 213.5,365.833 213.5,358.167 213.5,350.5C 215.068,348.069 216.568,348.069 218,350.5C 219.566,351.061 220.899,350.394 222,348.5C 223.402,350.973 224.902,350.973 226.5,348.5C 227.937,351.044 229.437,351.044 231,348.5C 232.525,348.888 234.192,348.888 236,348.5C 236.333,349.167 236.667,349.833 237,350.5C 238.933,347.159 241.433,346.825 244.5,349.5 Z"/></g>
<g><path style="opacity:1" fill="#6cbced" d="M 586.5,353.5 C 586.5,361.5 586.5,369.5 586.5,377.5C 584.753,377.407 582.919,377.074 581,376.5C 580,377.5 579,378.5 578,379.5C 577.667,378.833 577.333,378.167 577,377.5C 574.599,378.466 571.933,378.466 569,377.5C 568.667,378.167 568.333,378.833 568,379.5C 567.326,378.422 566.326,377.755 565,377.5C 563.21,378.285 561.543,378.285 560,377.5C 559.333,378.167 558.667,378.833 558,379.5C 557.329,378.748 556.496,378.414 555.5,378.5C 555.5,371.167 555.5,363.833 555.5,356.5C 556.458,356.047 557.292,355.381 558,354.5C 559.333,357.167 560.667,357.167 562,354.5C 562.741,355.641 563.575,355.641 564.5,354.5C 565.478,354.977 566.311,355.643 567,356.5C 568.523,354.38 570.356,354.047 572.5,355.5C 573.611,354.389 574.945,353.722 576.5,353.5C 577.929,355.083 579.429,355.75 581,355.5C 582.791,353.487 584.125,353.487 585,355.5C 585.278,354.584 585.778,353.918 586.5,353.5 Z"/></g>
<g><path style="opacity:1" fill="#6cbced" d="M 445.5,357.5 C 445.5,364.833 445.5,372.167 445.5,379.5C 444.844,380.278 444.011,380.944 443,381.5C 440.721,381.45 438.388,381.117 436,380.5C 434.182,382.645 432.682,382.645 431.5,380.5C 429.629,381.767 427.796,381.767 426,380.5C 425.667,381.167 425.333,381.833 425,382.5C 422.077,381.434 418.91,381.434 415.5,382.5C 415.388,374.156 415.055,365.822 414.5,357.5C 415.75,357.577 416.583,358.244 417,359.5C 417.689,358.643 418.522,357.977 419.5,357.5C 422.801,359.616 425.968,359.283 429,356.5C 429.419,357.672 430.085,358.672 431,359.5C 431.739,358.426 432.739,357.759 434,357.5C 435.788,358.3 437.455,358.634 439,358.5C 439.333,357.833 439.667,357.167 440,356.5C 441.861,357.873 443.694,358.206 445.5,357.5 Z"/></g>
<g><path style="opacity:1" fill="#6cbced" d="M 384.5,358.5 C 384.5,366.833 384.5,375.167 384.5,383.5C 383.518,382.859 382.518,382.193 381.5,381.5C 379.059,382.327 376.893,382.327 375,381.5C 374.333,382.167 373.667,382.833 373,383.5C 369.963,383.604 366.796,383.271 363.5,382.5C 362.522,382.977 361.689,383.643 361,384.5C 359.488,382.043 358.154,382.043 357,384.5C 356.329,383.748 355.496,383.414 354.5,383.5C 354.5,375.5 354.5,367.5 354.5,359.5C 359.076,360.219 363.576,360.552 368,360.5C 368.381,359.518 369.214,358.852 370.5,358.5C 372.765,358.94 374.932,359.606 377,360.5C 377.875,358.487 379.209,358.487 381,360.5C 381.816,359.177 382.983,358.511 384.5,358.5 Z"/></g>
<g><path style="opacity:1" fill="#6dc2ee" d="M 646.5,365.5 C 646.5,372.833 646.5,380.167 646.5,387.5C 645.213,386.232 644.213,386.565 643.5,388.5C 639.152,386.948 634.652,387.282 630,389.5C 629.374,387.009 628.541,387.009 627.5,389.5C 625.223,389.985 623.056,389.319 621,387.5C 620.692,388.308 620.192,388.975 619.5,389.5C 618.583,388.873 617.583,388.539 616.5,388.5C 616.5,380.833 616.5,373.167 616.5,365.5C 618.3,366.605 619.467,365.939 620,363.5C 620.333,364.167 620.667,364.833 621,365.5C 622.789,365.377 624.622,365.377 626.5,365.5C 627.192,364.975 627.692,364.308 628,363.5C 629.667,364.5 631,365.833 632,367.5C 632.419,366.328 633.085,365.328 634,364.5C 635.714,365.925 637.047,365.592 638,363.5C 640.942,364.791 643.775,365.458 646.5,365.5 Z"/></g>
<g><path style="opacity:1" fill="#6cbced" d="M 183.5,363.5 C 183.5,371.5 183.5,379.5 183.5,387.5C 182.883,387.611 182.383,387.944 182,388.5C 180.863,387.636 179.53,386.636 178,385.5C 176.155,387.35 174.155,387.683 172,386.5C 171.309,388.891 170.309,388.891 169,386.5C 167.333,387.833 165.667,387.833 164,386.5C 163.333,387.167 162.667,387.833 162,388.5C 158.627,387.654 155.46,387.32 152.5,387.5C 152.5,380.167 152.5,372.833 152.5,365.5C 153.75,365.423 154.583,364.756 155,363.5C 155.667,364.167 156.333,364.833 157,365.5C 159.899,365.023 162.566,364.023 165,362.5C 167.244,364.994 169.577,364.994 172,362.5C 173.017,365.028 174.184,365.028 175.5,362.5C 175.833,363.167 176.167,363.833 176.5,364.5C 178.7,363.686 181.033,363.353 183.5,363.5 Z"/></g>
<g><path style="opacity:1" fill="#6d59fe" d="M 765.5,381.5 C 778.732,379.96 790.066,383.794 799.5,393C 796.333,396.167 793.167,399.333 790,402.5C 776.77,391.467 764.103,392.134 752,404.5C 743.402,418.216 745.236,430.382 757.5,441C 762.519,443.673 767.852,445.34 773.5,446C 777.997,449.005 782.331,452.172 786.5,455.5C 768.632,461.907 753.465,457.907 741,443.5C 729.236,423.924 731.403,406.09 747.5,390C 752.99,385.902 758.99,383.069 765.5,381.5 Z"/></g>
<g><path style="opacity:1" fill="#6d58fe" d="M 1209.5,381.5 C 1211.5,381.5 1213.5,381.5 1215.5,381.5C 1215.83,385.884 1215.49,390.217 1214.5,394.5C 1206.39,396.652 1203.89,401.652 1207,409.5C 1208.21,411.049 1209.71,412.215 1211.5,413C 1221.89,413.1 1232.23,413.767 1242.5,415C 1256.45,422.862 1259.95,434.028 1253,448.5C 1248.22,455.142 1241.72,458.476 1233.5,458.5C 1233.5,454.167 1233.5,449.833 1233.5,445.5C 1241.71,444.086 1244.54,439.419 1242,431.5C 1240.83,430.333 1239.67,429.167 1238.5,428C 1228.57,426.742 1218.57,426.076 1208.5,426C 1194.42,420.341 1189.59,410.174 1194,395.5C 1197.47,388.864 1202.63,384.197 1209.5,381.5 Z"/></g>
<g><path style="opacity:1" fill="#6d59fe" d="M 1591.5,381.5 C 1615.84,380.027 1631.01,391.027 1637,414.5C 1638.17,436.987 1628.01,451.487 1606.5,458C 1583.78,460.559 1568.62,451.059 1561,429.5C 1557.77,404.951 1567.94,388.951 1591.5,381.5 Z M 1597.5,394.5 C 1613.53,395.653 1622.19,404.153 1623.5,420C 1622.43,435.57 1614.1,444.07 1598.5,445.5C 1577.25,441.673 1569.75,429.339 1576,408.5C 1580.82,400.175 1587.99,395.508 1597.5,394.5 Z"/></g>
<g><path style="opacity:1" fill="#6dc3ee" d="M 244.5,373.5 C 244.187,376.247 244.52,378.914 245.5,381.5C 253.731,386.777 262.064,391.777 270.5,396.5C 267.611,397.414 264.777,397.08 262,395.5C 260.676,396.88 259.343,397.214 258,396.5C 257.667,397.167 257.333,397.833 257,398.5C 255.43,397.642 253.763,396.975 252,396.5C 249.118,397.249 246.451,397.249 244,396.5C 242.68,398.583 241.346,398.249 240,395.5C 239,396.5 238,397.5 237,398.5C 236.333,397.167 235.667,397.167 235,398.5C 234.667,397.5 234.333,396.5 234,395.5C 231.347,396.33 228.68,397.33 226,398.5C 224.667,398.5 223.333,398.5 222,398.5C 220.271,396.566 218.271,396.566 216,398.5C 215.292,397.619 214.458,396.953 213.5,396.5C 213.5,388.833 213.5,381.167 213.5,373.5C 215.51,375.446 217.176,375.446 218.5,373.5C 221.247,375.904 223.747,375.57 226,372.5C 226.308,373.308 226.808,373.975 227.5,374.5C 232.981,373.654 238.648,373.321 244.5,373.5 Z"/></g>
<g><path style="opacity:1" fill="#6ec9f0" d="M 586.5,377.5 C 586.666,384.508 586.5,391.508 586,398.5C 582.924,400.426 579.758,402.092 576.5,403.5C 574.983,403.489 573.816,402.823 573,401.5C 572.692,402.308 572.192,402.975 571.5,403.5C 570.167,402.167 568.833,402.167 567.5,403.5C 566.522,403.023 565.689,402.357 565,401.5C 564.692,402.308 564.192,402.975 563.5,403.5C 562.11,401.797 560.61,401.13 559,401.5C 558.085,402.328 557.419,403.328 557,404.5C 556.311,403.643 555.478,402.977 554.5,402.5C 551.597,402.694 548.763,402.694 546,402.5C 544.691,404.891 543.691,404.891 543,402.5C 542.333,405.167 541.667,405.167 541,402.5C 540.667,403.167 540.333,403.833 540,404.5C 536.259,403.907 532.593,403.907 529,404.5C 528.055,404.095 527.388,403.428 527,402.5C 524.648,403.473 522.315,404.473 520,405.5C 518.238,405.056 518.405,404.556 520.5,404C 519.584,403.722 518.918,403.222 518.5,402.5C 529.945,396.228 541.278,389.728 552.5,383C 554.439,382.092 555.439,380.592 555.5,378.5C 556.496,378.414 557.329,378.748 558,379.5C 558.667,378.833 559.333,378.167 560,377.5C 561.543,378.285 563.21,378.285 565,377.5C 566.326,377.755 567.326,378.422 568,379.5C 568.333,378.833 568.667,378.167 569,377.5C 571.933,378.466 574.599,378.466 577,377.5C 577.333,378.167 577.667,378.833 578,379.5C 579,378.5 580,377.5 581,376.5C 582.919,377.074 584.753,377.407 586.5,377.5 Z"/></g>
<g><path style="opacity:1" fill="#6d5dfd" d="M 1322.5,388.5 C 1329.49,387.648 1331.82,390.481 1329.5,397C 1324.63,399.706 1321.63,398.373 1320.5,393C 1320.52,391.167 1321.19,389.667 1322.5,388.5 Z"/></g>
<g><path style="opacity:1" fill="#6e63fd" d="M 1694.5,388.5 C 1700.6,387.263 1703.43,389.597 1703,395.5C 1699.67,399.5 1696.33,399.5 1693,395.5C 1692.39,392.935 1692.89,390.601 1694.5,388.5 Z"/></g>
<g><path style="opacity:1" fill="#6d5efe" d="M 1774.5,388.5 C 1782.49,387.998 1784.49,391.165 1780.5,398C 1772.84,398.511 1770.84,395.345 1774.5,388.5 Z"/></g>
<g><path style="opacity:1" fill="#6fcbf1" d="M 445.5,379.5 C 445.708,390.224 445.041,400.891 443.5,411.5C 434.661,416.754 425.661,421.754 416.5,426.5C 415.501,411.848 415.167,397.182 415.5,382.5C 418.91,381.434 422.077,381.434 425,382.5C 425.333,381.833 425.667,381.167 426,380.5C 427.796,381.767 429.629,381.767 431.5,380.5C 432.682,382.645 434.182,382.645 436,380.5C 438.388,381.117 440.721,381.45 443,381.5C 444.011,380.944 444.844,380.278 445.5,379.5 Z"/></g>
<g><path style="opacity:1" fill="#6ec8f0" d="M 384.5,383.5 C 384.5,391.833 384.5,400.167 384.5,408.5C 380.117,406.301 375.95,406.301 372,408.5C 370.846,406.043 369.512,406.043 368,408.5C 366.691,406.109 365.691,406.109 365,408.5C 364,407.167 363,407.167 362,408.5C 360.271,406.566 358.271,406.566 356,408.5C 355.617,407.944 355.117,407.611 354.5,407.5C 354.5,399.5 354.5,391.5 354.5,383.5C 355.496,383.414 356.329,383.748 357,384.5C 358.154,382.043 359.488,382.043 361,384.5C 361.689,383.643 362.522,382.977 363.5,382.5C 366.796,383.271 369.963,383.604 373,383.5C 373.667,382.833 374.333,382.167 375,381.5C 376.893,382.327 379.059,382.327 381.5,381.5C 382.518,382.193 383.518,382.859 384.5,383.5 Z"/></g>
<g><path style="opacity:1" fill="#6c56fe" d="M 1082.5,416.5 C 1078.17,416.5 1073.83,416.5 1069.5,416.5C 1069.17,426.348 1069.51,436.014 1070.5,445.5C 1071.4,452.275 1075.06,454.275 1081.5,451.5C 1082.97,454.321 1082.64,456.821 1080.5,459C 1073.99,460.759 1068.49,459.259 1064,454.5C 1062.56,442.242 1062.06,429.909 1062.5,417.5C 1059.83,417.5 1057.17,417.5 1054.5,417.5C 1054.5,415.167 1054.5,412.833 1054.5,410.5C 1057.17,410.5 1059.83,410.5 1062.5,410.5C 1062.33,406.486 1062.5,402.486 1063,398.5C 1065.3,397.133 1067.8,396.466 1070.5,396.5C 1070.5,401.167 1070.5,405.833 1070.5,410.5C 1074.5,410.5 1078.5,410.5 1082.5,410.5C 1082.5,412.5 1082.5,414.5 1082.5,416.5 Z"/></g>
<g><path style="opacity:1" fill="#6ec8f0" d="M 183.5,387.5 C 183.5,395.5 183.5,403.5 183.5,411.5C 179.871,412.286 176.037,412.286 172,411.5C 171.055,411.905 170.388,412.572 170,413.5C 168.846,411.043 167.512,411.043 166,413.5C 165.125,411.487 163.791,411.487 162,413.5C 159.888,411.078 157.888,411.078 156,413.5C 155.667,412.833 155.333,412.167 155,411.5C 154.292,412.381 153.458,413.047 152.5,413.5C 152.5,404.833 152.5,396.167 152.5,387.5C 155.46,387.32 158.627,387.654 162,388.5C 162.667,387.833 163.333,387.167 164,386.5C 165.667,387.833 167.333,387.833 169,386.5C 170.309,388.891 171.309,388.891 172,386.5C 174.155,387.683 176.155,387.35 178,385.5C 179.53,386.636 180.863,387.636 182,388.5C 182.383,387.944 182.883,387.611 183.5,387.5 Z"/></g>
<g><path style="opacity:1" fill="#6fcff2" d="M 646.5,387.5 C 646.5,396.5 646.5,405.5 646.5,414.5C 645.178,414.67 644.011,414.337 643,413.5C 640.92,415.973 638.754,415.973 636.5,413.5C 635.808,414.025 635.308,414.692 635,415.5C 634.481,414.484 633.647,413.818 632.5,413.5C 630.833,414.833 629.167,414.833 627.5,413.5C 626.353,413.818 625.519,414.484 625,415.5C 624.581,414.328 623.915,413.328 623,412.5C 620.867,413.255 619.2,414.588 618,416.5C 617.722,415.584 617.222,414.918 616.5,414.5C 616.5,405.833 616.5,397.167 616.5,388.5C 617.583,388.539 618.583,388.873 619.5,389.5C 620.192,388.975 620.692,388.308 621,387.5C 623.056,389.319 625.223,389.985 627.5,389.5C 628.541,387.009 629.374,387.009 630,389.5C 634.652,387.282 639.152,386.948 643.5,388.5C 644.213,386.565 645.213,386.232 646.5,387.5 Z"/></g>
<g><path style="opacity:1" fill="#6fcff2" d="M 270.5,396.5 C 285.097,404.442 299.431,412.775 313.5,421.5C 309.543,421.008 305.877,421.675 302.5,423.5C 301.201,422.91 300.368,421.91 300,420.5C 296.812,420.151 293.645,420.818 290.5,422.5C 287.58,420.92 284.914,421.253 282.5,423.5C 279.41,422.515 276.244,421.849 273,421.5C 271.342,421.675 270.009,422.342 269,423.5C 268.667,422.833 268.333,422.167 268,421.5C 266.333,424.167 264.667,424.167 263,421.5C 262.383,422.449 262.549,423.282 263.5,424C 262.584,424.278 261.918,424.778 261.5,425.5C 245.564,417.197 229.897,408.364 214.5,399C 213.748,398.329 213.414,397.496 213.5,396.5C 214.458,396.953 215.292,397.619 216,398.5C 218.271,396.566 220.271,396.566 222,398.5C 223.333,398.5 224.667,398.5 226,398.5C 228.68,397.33 231.347,396.33 234,395.5C 234.333,396.5 234.667,397.5 235,398.5C 235.667,397.167 236.333,397.167 237,398.5C 238,397.5 239,396.5 240,395.5C 241.346,398.249 242.68,398.583 244,396.5C 246.451,397.249 249.118,397.249 252,396.5C 253.763,396.975 255.43,397.642 257,398.5C 257.333,397.833 257.667,397.167 258,396.5C 259.343,397.214 260.676,396.88 262,395.5C 264.777,397.08 267.611,397.414 270.5,396.5 Z"/></g>
<g><path style="opacity:1" fill="#6d5dfe" d="M 824.5,409.5 C 847.238,408.076 857.071,418.742 854,441.5C 849.123,456.197 838.956,462.031 823.5,459C 812.204,455.099 806.537,447.099 806.5,435C 806.789,422.193 812.789,413.693 824.5,409.5 Z M 825.5,416.5 C 839.255,414.586 846.255,420.586 846.5,434.5C 845.099,450.867 836.766,456.033 821.5,450C 814.523,441.118 813.69,431.618 819,421.5C 820.965,419.45 823.132,417.783 825.5,416.5 Z"/></g>
<g><path style="opacity:1" fill="#6d5bfe" d="M 883.5,409.5 C 892.437,407.555 898.937,410.555 903,418.5C 909.072,409.623 917.239,407.123 927.5,411C 930.433,413.264 932.6,416.098 934,419.5C 935.353,432.458 935.853,445.458 935.5,458.5C 932.5,458.5 929.5,458.5 926.5,458.5C 926.667,446.829 926.5,435.162 926,423.5C 922.931,416.386 917.764,414.553 910.5,418C 908.383,419.731 906.883,421.898 906,424.5C 904.617,435.779 904.117,447.112 904.5,458.5C 901.833,458.5 899.167,458.5 896.5,458.5C 896.667,447.162 896.5,435.828 896,424.5C 893.832,417.164 888.999,414.664 881.5,417C 879.291,418.873 877.458,421.04 876,423.5C 874.588,435.104 874.088,446.771 874.5,458.5C 871.833,458.5 869.167,458.5 866.5,458.5C 866.5,442.5 866.5,426.5 866.5,410.5C 869.167,410.5 871.833,410.5 874.5,410.5C 874.338,412.527 874.505,414.527 875,416.5C 877.441,413.546 880.275,411.213 883.5,409.5 Z"/></g>
<g><path style="opacity:1" fill="#6d59fe" d="M 958.5,453.5 C 958.217,452.711 957.717,452.044 957,451.5C 956.5,461.161 956.334,470.828 956.5,480.5C 954.167,480.5 951.833,480.5 949.5,480.5C 949.5,457.167 949.5,433.833 949.5,410.5C 951.833,410.5 954.167,410.5 956.5,410.5C 956.187,413.247 956.52,415.914 957.5,418.5C 958.107,418.376 958.44,418.043 958.5,417.5C 960.206,413.621 963.206,411.121 967.5,410C 984.561,408.057 993.228,415.724 993.5,433C 993.704,452.134 984.371,460.8 965.5,459C 962.405,458.065 960.071,456.231 958.5,453.5 Z M 966.5,416.5 C 979.186,414.686 985.519,420.186 985.5,433C 985.385,438.581 983.885,443.748 981,448.5C 975.72,452.755 969.886,453.588 963.5,451C 960.894,449.062 959.061,446.562 958,443.5C 956.887,436.285 957.554,429.285 960,422.5C 962.063,420.266 964.229,418.266 966.5,416.5 Z"/></g>
<g><path style="opacity:1" fill="#6d5afe" d="M 1126.5,448.5 C 1127.47,450.607 1127.8,452.941 1127.5,455.5C 1100.46,465.725 1087.96,456.392 1090,427.5C 1095.27,410.95 1106.1,405.784 1122.5,412C 1129.68,418.494 1132.68,426.661 1131.5,436.5C 1120.17,436.5 1108.83,436.5 1097.5,436.5C 1098.66,449.423 1105.66,454.589 1118.5,452C 1121.44,451.304 1124.1,450.138 1126.5,448.5 Z M 1122.5,425.5 C 1122.5,426.833 1122.5,428.167 1122.5,429.5C 1114.17,429.5 1105.83,429.5 1097.5,429.5C 1100.95,416.685 1108.45,413.351 1120,419.5C 1121.12,421.407 1121.96,423.407 1122.5,425.5 Z"/></g>
<g><path style="opacity:1" fill="#6e5ffe" d="M 1291.5,409.5 C 1296.51,409.334 1301.51,409.501 1306.5,410C 1307.77,410.309 1308.93,410.809 1310,411.5C 1311.79,418.494 1309.95,420.327 1304.5,417C 1287.21,415.972 1280.04,424.139 1283,441.5C 1287.62,452.219 1295.46,455.386 1306.5,451C 1307.58,450.044 1308.75,449.211 1310,448.5C 1312.05,454.264 1310.22,457.764 1304.5,459C 1285.91,461.899 1275.58,454.066 1273.5,435.5C 1273.7,422.658 1279.7,413.991 1291.5,409.5 Z"/></g>
<g><path style="opacity:1" fill="#6d5afe" d="M 1357.5,409.5 C 1376.91,407.91 1385.57,416.91 1383.5,436.5C 1372.16,436.333 1360.83,436.5 1349.5,437C 1351.27,449.898 1358.6,454.898 1371.5,452C 1374.7,451.152 1377.53,449.652 1380,447.5C 1381.79,452.633 1380.29,456.133 1375.5,458C 1367.35,460.278 1359.35,459.945 1351.5,457C 1341.89,448.069 1339.06,437.236 1343,424.5C 1345.79,417.387 1350.63,412.387 1357.5,409.5 Z M 1361.5,414.5 C 1369.65,414.81 1374.65,418.977 1376.5,427C 1376.41,428.107 1376.08,429.107 1375.5,430C 1366.34,430.968 1357.34,430.635 1348.5,429C 1350.59,422.084 1354.92,417.251 1361.5,414.5 Z"/></g>
<g><path style="opacity:1" fill="#6f63fe" d="M 1402.5,410.5 C 1402.34,413.187 1402.5,415.854 1403,418.5C 1403.72,417.956 1404.22,417.289 1404.5,416.5C 1409.56,409.883 1416.22,407.716 1424.5,410C 1431.05,412.583 1434.55,417.417 1435,424.5C 1435.5,435.828 1435.67,447.162 1435.5,458.5C 1432.5,458.5 1429.5,458.5 1426.5,458.5C 1426.67,446.829 1426.5,435.162 1426,423.5C 1424.57,418.45 1421.23,416.117 1416,416.5C 1410.04,416.783 1406.04,419.783 1404,425.5C 1403.5,436.495 1403.33,447.495 1403.5,458.5C 1400.5,458.5 1397.5,458.5 1394.5,458.5C 1394.5,442.5 1394.5,426.5 1394.5,410.5C 1397.17,410.5 1399.83,410.5 1402.5,410.5 Z"/></g>
<g><path style="opacity:1" fill="#6e5ffe" d="M 1463.5,409.5 C 1468.51,409.334 1473.51,409.501 1478.5,410C 1479.77,410.309 1480.93,410.809 1482,411.5C 1483.79,418.494 1481.95,420.327 1476.5,417C 1459.75,415.754 1452.59,423.587 1455,440.5C 1456.82,448.817 1461.98,452.817 1470.5,452.5C 1474.88,452.65 1478.72,451.317 1482,448.5C 1484.05,454.264 1482.22,457.764 1476.5,459C 1457.96,461.954 1447.62,454.121 1445.5,435.5C 1445.7,422.658 1451.7,413.991 1463.5,409.5 Z"/></g>
<g><path style="opacity:1" fill="#6e5bfe" d="M 1506.5,409.5 C 1525.68,408.13 1534.35,417.13 1532.5,436.5C 1521.15,436.168 1509.81,436.501 1498.5,437.5C 1500.6,450.059 1507.93,454.892 1520.5,452C 1523.7,451.152 1526.53,449.652 1529,447.5C 1529.67,450.167 1529.67,452.833 1529,455.5C 1521.61,459.264 1513.78,460.43 1505.5,459C 1497.32,456.498 1492.49,450.998 1491,442.5C 1487.67,427.162 1492.84,416.162 1506.5,409.5 Z M 1510.5,414.5 C 1520.42,415.242 1525.09,420.409 1524.5,430C 1515.59,430.816 1506.76,430.65 1498,429.5C 1498.87,421.771 1503.03,416.771 1510.5,414.5 Z"/></g>
<g><path style="opacity:1" fill="#6e5ffe" d="M 1729.5,409.5 C 1734.6,409.175 1739.6,409.675 1744.5,411C 1747,412.167 1748.83,414 1750,416.5C 1750.5,414.527 1750.66,412.527 1750.5,410.5C 1753.17,410.5 1755.83,410.5 1758.5,410.5C 1758.67,427.503 1758.5,444.503 1758,461.5C 1755.35,475.141 1747.02,481.808 1733,481.5C 1727.59,481.352 1722.43,480.185 1717.5,478C 1716.07,475.051 1716.23,472.218 1718,469.5C 1727.98,476.443 1737.64,476.109 1747,468.5C 1749.8,463.152 1750.8,457.486 1750,451.5C 1744.35,459.067 1736.85,461.567 1727.5,459C 1717.77,454.561 1713.1,446.894 1713.5,436C 1713.14,423.517 1718.48,414.684 1729.5,409.5 Z M 1732.5,416.5 C 1741.7,415.009 1747.54,418.676 1750,427.5C 1751.19,434.521 1750.19,441.187 1747,447.5C 1741.15,453.077 1734.65,453.91 1727.5,450C 1721.39,440.885 1720.89,431.385 1726,421.5C 1727.8,419.174 1729.97,417.508 1732.5,416.5 Z"/></g>
<g><path style="opacity:1" fill="#7064fe" d="M 1814.5,409.5 C 1827.64,407.137 1835.14,412.471 1837,425.5C 1837.5,436.495 1837.67,447.495 1837.5,458.5C 1834.5,458.5 1831.5,458.5 1828.5,458.5C 1828.67,447.162 1828.5,435.828 1828,424.5C 1827.03,418.861 1823.7,416.195 1818,416.5C 1812.02,416.814 1808.02,419.814 1806,425.5C 1805.5,436.495 1805.33,447.495 1805.5,458.5C 1802.5,458.5 1799.5,458.5 1796.5,458.5C 1796.5,442.5 1796.5,426.5 1796.5,410.5C 1799.5,410.5 1802.5,410.5 1805.5,410.5C 1805.34,412.527 1805.5,414.527 1806,416.5C 1808.42,413.577 1811.25,411.243 1814.5,409.5 Z"/></g>
<g><path style="opacity:1" fill="#6e5ffe" d="M 1859.5,409.5 C 1864.51,409.334 1869.51,409.501 1874.5,410C 1875.77,410.309 1876.93,410.809 1878,411.5C 1878.82,414.227 1878.65,416.894 1877.5,419.5C 1872.55,416.667 1867.22,415.834 1861.5,417C 1855.73,419.748 1855.06,423.414 1859.5,428C 1864.62,430.06 1869.62,432.393 1874.5,435C 1880.99,440.081 1882.16,446.248 1878,453.5C 1875.37,456.231 1872.21,458.064 1868.5,459C 1862.02,459.979 1855.68,459.479 1849.5,457.5C 1848.35,454.554 1848.18,451.554 1849,448.5C 1856.25,453.255 1863.59,453.588 1871,449.5C 1872.83,446.943 1872.66,444.443 1870.5,442C 1865.7,439.287 1860.7,436.954 1855.5,435C 1848.43,430.544 1846.6,424.378 1850,416.5C 1852.79,413.535 1855.96,411.202 1859.5,409.5 Z"/></g>
<g><path style="opacity:1" fill="#6d86fa" d="M 956.5,410.5 C 957.167,412.833 957.833,415.167 958.5,417.5C 958.44,418.043 958.107,418.376 957.5,418.5C 956.52,415.914 956.187,413.247 956.5,410.5 Z"/></g>
<g><path style="opacity:1" fill="#6d59fe" d="M 1004.5,410.5 C 1007.17,410.5 1009.83,410.5 1012.5,410.5C 1012.09,422.562 1012.59,434.562 1014,446.5C 1015.94,450.802 1019.27,452.802 1024,452.5C 1030.39,452.117 1034.39,448.783 1036,442.5C 1036.5,431.839 1036.67,421.172 1036.5,410.5C 1039.17,410.5 1041.83,410.5 1044.5,410.5C 1044.5,426.5 1044.5,442.5 1044.5,458.5C 1041.83,458.5 1039.17,458.5 1036.5,458.5C 1036.66,456.473 1036.5,454.473 1036,452.5C 1032.69,457.781 1027.86,460.114 1021.5,459.5C 1012.2,459.374 1006.7,454.707 1005,445.5C 1004.5,433.838 1004.33,422.171 1004.5,410.5 Z"/></g>
<g><path style="opacity:1" fill="#6d59fe" d="M 1167.5,410.5 C 1167.8,413.059 1167.47,415.393 1166.5,417.5C 1159.38,416.14 1154.55,418.807 1152,425.5C 1150.65,436.451 1150.15,447.451 1150.5,458.5C 1147.83,458.5 1145.17,458.5 1142.5,458.5C 1142.5,442.5 1142.5,426.5 1142.5,410.5C 1145.17,410.5 1147.83,410.5 1150.5,410.5C 1149.62,418.633 1150.79,419.633 1154,413.5C 1158.02,409.696 1162.52,408.696 1167.5,410.5 Z"/></g>
<g><path style="opacity:1" fill="#6b52fe" d="M 1321.5,410.5 C 1324.17,410.5 1326.83,410.5 1329.5,410.5C 1329.5,426.5 1329.5,442.5 1329.5,458.5C 1326.83,458.5 1324.17,458.5 1321.5,458.5C 1321.5,442.5 1321.5,426.5 1321.5,410.5 Z"/></g>
<g><path style="opacity:1" fill="#70aaf8" d="M 1402.5,410.5 C 1403.17,412.5 1403.83,414.5 1404.5,416.5C 1404.22,417.289 1403.72,417.956 1403,418.5C 1402.5,415.854 1402.34,413.187 1402.5,410.5 Z"/></g>
<g><path style="opacity:1" fill="#6c58fe" d="M 1685.5,411.5 C 1685.79,413.735 1685.46,415.735 1684.5,417.5C 1675.45,416.374 1670.28,420.374 1669,429.5C 1668.5,439.161 1668.33,448.828 1668.5,458.5C 1665.83,458.5 1663.17,458.5 1660.5,458.5C 1660.5,442.5 1660.5,426.5 1660.5,410.5C 1663.17,410.5 1665.83,410.5 1668.5,410.5C 1668.34,413.187 1668.5,415.854 1669,418.5C 1672.59,410.598 1678.09,408.265 1685.5,411.5 Z"/></g>
<g><path style="opacity:1" fill="#7066fe" d="M 1693.5,410.5 C 1696.5,410.5 1699.5,410.5 1702.5,410.5C 1702.5,426.5 1702.5,442.5 1702.5,458.5C 1699.5,458.5 1696.5,458.5 1693.5,458.5C 1693.5,442.5 1693.5,426.5 1693.5,410.5 Z"/></g>
<g><path style="opacity:1" fill="#6c54fe" d="M 1773.5,410.5 C 1776.17,410.5 1778.83,410.5 1781.5,410.5C 1781.5,426.5 1781.5,442.5 1781.5,458.5C 1778.83,458.5 1776.17,458.5 1773.5,458.5C 1773.5,442.5 1773.5,426.5 1773.5,410.5 Z"/></g>
<g><path style="opacity:1" fill="#71bef8" d="M 1685.5,411.5 C 1686.8,413.693 1686.8,416.027 1685.5,418.5C 1684.89,418.376 1684.56,418.043 1684.5,417.5C 1685.46,415.735 1685.79,413.735 1685.5,411.5 Z"/></g>
<g><path style="opacity:1" fill="#70d5f3" d="M 576.5,403.5 C 563.531,411.321 550.531,419.154 537.5,427C 536.552,427.483 535.552,427.649 534.5,427.5C 533.184,427.526 531.684,427.193 530,426.5C 528.209,428.513 526.875,428.513 526,426.5C 523.832,428.455 521.498,429.121 519,428.5C 518.333,427.833 517.667,427.167 517,426.5C 515.326,428.009 513.66,428.676 512,428.5C 511,427.833 510,427.167 509,426.5C 505.497,427.521 502.163,428.188 499,428.5C 498.333,427.833 497.667,427.167 497,426.5C 494.432,428.636 492.098,428.636 490,426.5C 488.312,428.045 486.312,429.045 484,429.5C 483.667,428.833 483.333,428.167 483,427.5C 480.704,428.942 478.038,429.609 475,429.5C 474.536,428.906 474.369,428.239 474.5,427.5C 489.199,419.153 503.865,410.819 518.5,402.5C 518.918,403.222 519.584,403.722 520.5,404C 518.405,404.556 518.238,405.056 520,405.5C 522.315,404.473 524.648,403.473 527,402.5C 527.388,403.428 528.055,404.095 529,404.5C 532.593,403.907 536.259,403.907 540,404.5C 540.333,403.833 540.667,403.167 541,402.5C 541.667,405.167 542.333,405.167 543,402.5C 543.691,404.891 544.691,404.891 546,402.5C 548.763,402.694 551.597,402.694 554.5,402.5C 555.478,402.977 556.311,403.643 557,404.5C 557.419,403.328 558.085,402.328 559,401.5C 560.61,401.13 562.11,401.797 563.5,403.5C 564.192,402.975 564.692,402.308 565,401.5C 565.689,402.357 566.522,403.023 567.5,403.5C 568.833,402.167 570.167,402.167 571.5,403.5C 572.192,402.975 572.692,402.308 573,401.5C 573.816,402.823 574.983,403.489 576.5,403.5 Z"/></g>
<g><path style="opacity:1" fill="#6e99f9" d="M 1167.5,410.5 C 1168.8,413.024 1168.8,415.691 1167.5,418.5C 1166.89,418.376 1166.56,418.043 1166.5,417.5C 1167.47,415.393 1167.8,413.059 1167.5,410.5 Z"/></g>
<g><path style="opacity:1" fill="#70d5f3" d="M 384.5,408.5 C 384.5,415.833 384.5,423.167 384.5,430.5C 373.448,431.805 363.448,431.805 354.5,430.5C 354.5,422.833 354.5,415.167 354.5,407.5C 355.117,407.611 355.617,407.944 356,408.5C 358.271,406.566 360.271,406.566 362,408.5C 363,407.167 364,407.167 365,408.5C 365.691,406.109 366.691,406.109 368,408.5C 369.512,406.043 370.846,406.043 372,408.5C 375.95,406.301 380.117,406.301 384.5,408.5 Z"/></g>
<g><path style="opacity:1" fill="#71d7f4" d="M 313.5,421.5 C 316.8,423.108 320.133,424.775 323.5,426.5C 324.452,428.045 324.785,429.712 324.5,431.5C 323.25,431.577 322.417,432.244 322,433.5C 318.931,430.863 316.764,430.863 315.5,433.5C 312.997,433.715 310.497,433.048 308,431.5C 307.125,433.513 305.791,433.513 304,431.5C 302.867,433.211 301.367,433.711 299.5,433C 301.595,432.444 301.762,431.944 300,431.5C 297.987,433.794 295.82,433.794 293.5,431.5C 292.522,431.977 291.689,432.643 291,433.5C 290.667,432.833 290.333,432.167 290,431.5C 289.481,432.516 288.647,433.182 287.5,433.5C 285.462,432.366 283.462,432.366 281.5,433.5C 279.647,431.262 277.647,431.262 275.5,433.5C 274.448,433.649 273.448,433.483 272.5,433C 268.767,430.477 265.101,427.977 261.5,425.5C 261.918,424.778 262.584,424.278 263.5,424C 262.549,423.282 262.383,422.449 263,421.5C 264.667,424.167 266.333,424.167 268,421.5C 268.333,422.167 268.667,422.833 269,423.5C 270.009,422.342 271.342,421.675 273,421.5C 276.244,421.849 279.41,422.515 282.5,423.5C 284.914,421.253 287.58,420.92 290.5,422.5C 293.645,420.818 296.812,420.151 300,420.5C 300.368,421.91 301.201,422.91 302.5,423.5C 305.877,421.675 309.543,421.008 313.5,421.5 Z"/></g>
<g><path style="opacity:1" fill="#70d5f4" d="M 183.5,411.5 C 183.215,413.288 183.548,414.955 184.5,416.5C 195.06,422.274 205.393,428.274 215.5,434.5C 215.565,434.938 215.399,435.272 215,435.5C 212.321,433.921 209.654,433.254 207,433.5C 206,434.5 205,435.5 204,436.5C 203.309,434.109 202.309,434.109 201,436.5C 197.982,436.019 195.148,435.019 192.5,433.5C 189.112,435.63 185.779,435.963 182.5,434.5C 182.167,435.167 181.833,435.833 181.5,436.5C 180.808,435.975 180.308,435.308 180,434.5C 179.333,435.833 178.667,435.833 178,434.5C 177.333,437.167 176.667,437.167 176,434.5C 174.026,434.626 171.859,434.792 169.5,435C 169,435.5 168.5,436 168,436.5C 167.333,435.167 166.667,435.167 166,436.5C 165.667,435.833 165.333,435.167 165,434.5C 164.333,435.833 163.667,435.833 163,434.5C 162.125,436.513 160.791,436.513 159,434.5C 158.617,435.056 158.117,435.389 157.5,435.5C 155.956,435.297 154.622,434.63 153.5,433.5C 152.503,426.866 152.17,420.2 152.5,413.5C 153.458,413.047 154.292,412.381 155,411.5C 155.333,412.167 155.667,412.833 156,413.5C 157.888,411.078 159.888,411.078 162,413.5C 163.791,411.487 165.125,411.487 166,413.5C 167.512,411.043 168.846,411.043 170,413.5C 170.388,412.572 171.055,411.905 172,411.5C 176.037,412.286 179.871,412.286 183.5,411.5 Z"/></g>
<g><path style="opacity:1" fill="#72dcf5" d="M 646.5,414.5 C 646.666,420.842 646.5,427.175 646,433.5C 643.552,434.973 641.052,436.307 638.5,437.5C 636.951,437.264 635.451,437.264 634,437.5C 633.667,436.833 633.333,436.167 633,435.5C 631.333,436.833 629.667,436.833 628,435.5C 627.667,436.167 627.333,436.833 627,437.5C 625.326,435.991 623.66,435.324 622,435.5C 620.075,439.169 618.408,439.169 617,435.5C 615.209,437.513 613.875,437.513 613,435.5C 611.691,437.891 610.691,437.891 610,435.5C 609,436.167 608,436.833 607,437.5C 602.423,436.412 597.756,436.412 593,437.5C 592.374,435.009 591.541,435.009 590.5,437.5C 588.694,436.141 587.194,436.475 586,438.5C 583.928,438.742 581.761,438.409 579.5,437.5C 589.972,431.094 600.639,424.927 611.5,419C 613.618,417.951 615.284,416.451 616.5,414.5C 617.222,414.918 617.722,415.584 618,416.5C 619.2,414.588 620.867,413.255 623,412.5C 623.915,413.328 624.581,414.328 625,415.5C 625.519,414.484 626.353,413.818 627.5,413.5C 629.167,414.833 630.833,414.833 632.5,413.5C 633.647,413.818 634.481,414.484 635,415.5C 635.308,414.692 635.808,414.025 636.5,413.5C 638.754,415.973 640.92,415.973 643,413.5C 644.011,414.337 645.178,414.67 646.5,414.5 Z"/></g>
<g><path style="opacity:1" fill="#6e85fb" d="M 1122.5,425.5 C 1123.45,426.919 1123.78,428.585 1123.5,430.5C 1114.65,430.826 1105.98,430.493 1097.5,429.5C 1105.83,429.5 1114.17,429.5 1122.5,429.5C 1122.5,428.167 1122.5,426.833 1122.5,425.5 Z"/></g>
<g><path style="opacity:1" fill="#72dff6" d="M 324.5,431.5 C 324.5,440.167 324.5,448.833 324.5,457.5C 322.418,457.528 320.584,456.861 319,455.5C 318.779,458.943 317.779,459.276 316,456.5C 312.692,457.784 309.359,457.784 306,456.5C 304.333,457.167 302.667,457.833 301,458.5C 300.667,457.833 300.333,457.167 300,456.5C 297.959,457.423 295.792,457.756 293.5,457.5C 293.666,453.154 293.499,448.821 293,444.5C 286.931,441.102 281.098,437.436 275.5,433.5C 277.647,431.262 279.647,431.262 281.5,433.5C 283.462,432.366 285.462,432.366 287.5,433.5C 288.647,433.182 289.481,432.516 290,431.5C 290.333,432.167 290.667,432.833 291,433.5C 291.689,432.643 292.522,431.977 293.5,431.5C 295.82,433.794 297.987,433.794 300,431.5C 301.762,431.944 301.595,432.444 299.5,433C 301.367,433.711 302.867,433.211 304,431.5C 305.791,433.513 307.125,433.513 308,431.5C 310.497,433.048 312.997,433.715 315.5,433.5C 316.764,430.863 318.931,430.863 322,433.5C 322.417,432.244 323.25,431.577 324.5,431.5 Z"/></g>
<g><path style="opacity:1" fill="#6c70fc" d="M 1082.5,416.5 C 1078.7,417.483 1074.7,417.817 1070.5,417.5C 1070.5,426.833 1070.5,436.167 1070.5,445.5C 1069.51,436.014 1069.17,426.348 1069.5,416.5C 1073.83,416.5 1078.17,416.5 1082.5,416.5 Z"/></g>
<g><path style="opacity:1" fill="#73e1f7" d="M 534.5,427.5 C 520.139,436.681 505.472,445.347 490.5,453.5C 488.104,452.703 485.771,452.37 483.5,452.5C 482.214,452.852 481.381,453.518 481,454.5C 479.584,453.427 478.25,453.427 477,454.5C 475.055,452.819 473.055,452.152 471,452.5C 470.311,453.357 469.478,454.023 468.5,454.5C 461.089,453.756 454.089,453.756 447.5,454.5C 446.808,453.975 446.308,453.308 446,452.5C 444.604,454.527 442.938,454.86 441,453.5C 437.247,455.472 433.413,455.805 429.5,454.5C 444.299,445.263 459.299,436.263 474.5,427.5C 474.369,428.239 474.536,428.906 475,429.5C 478.038,429.609 480.704,428.942 483,427.5C 483.333,428.167 483.667,428.833 484,429.5C 486.312,429.045 488.312,428.045 490,426.5C 492.098,428.636 494.432,428.636 497,426.5C 497.667,427.167 498.333,427.833 499,428.5C 502.163,428.188 505.497,427.521 509,426.5C 510,427.167 511,427.833 512,428.5C 513.66,428.676 515.326,428.009 517,426.5C 517.667,427.167 518.333,427.833 519,428.5C 521.498,429.121 523.832,428.455 526,426.5C 526.875,428.513 528.209,428.513 530,426.5C 531.684,427.193 533.184,427.526 534.5,427.5 Z"/></g>
<g><path style="opacity:1" fill="#73e1f7" d="M 384.5,430.5 C 384.5,438.833 384.5,447.167 384.5,455.5C 382.864,456.246 381.197,455.912 379.5,454.5C 378.808,455.025 378.308,455.692 378,456.5C 376.333,455.167 374.667,455.167 373,456.5C 372.667,455.833 372.333,455.167 372,454.5C 370.47,455.636 369.137,456.636 368,457.5C 367.085,456.672 366.419,455.672 366,454.5C 362.236,457.3 358.402,457.634 354.5,455.5C 354.5,447.167 354.5,438.833 354.5,430.5C 363.448,431.805 373.448,431.805 384.5,430.5 Z"/></g>
<g><path style="opacity:1" fill="#73e1f7" d="M 215.5,434.5 C 229.067,441.441 242.067,449.108 254.5,457.5C 252.44,458.811 250.274,458.811 248,457.5C 247.667,458.167 247.333,458.833 247,459.5C 244.241,458.411 241.575,458.411 239,459.5C 238.667,458.833 238.333,458.167 238,457.5C 236.559,458.26 235.059,458.926 233.5,459.5C 231.232,458.517 228.732,458.184 226,458.5C 225,459.167 224,459.833 223,460.5C 220.471,458.052 217.804,458.052 215,460.5C 213.119,458.175 211.452,458.175 210,460.5C 208.739,460.241 207.739,459.574 207,458.5C 205.488,460.957 204.154,460.957 203,458.5C 202.516,460.178 201.683,460.844 200.5,460.5C 185.935,452.39 171.602,444.057 157.5,435.5C 158.117,435.389 158.617,435.056 159,434.5C 160.791,436.513 162.125,436.513 163,434.5C 163.667,435.833 164.333,435.833 165,434.5C 165.333,435.167 165.667,435.833 166,436.5C 166.667,435.167 167.333,435.167 168,436.5C 168.5,436 169,435.5 169.5,435C 171.859,434.792 174.026,434.626 176,434.5C 176.667,437.167 177.333,437.167 178,434.5C 178.667,435.833 179.333,435.833 180,434.5C 180.308,435.308 180.808,435.975 181.5,436.5C 181.833,435.833 182.167,435.167 182.5,434.5C 185.779,435.963 189.112,435.63 192.5,433.5C 195.148,435.019 197.982,436.019 201,436.5C 202.309,434.109 203.309,434.109 204,436.5C 205,435.5 206,434.5 207,433.5C 209.654,433.254 212.321,433.921 215,435.5C 215.399,435.272 215.565,434.938 215.5,434.5 Z"/></g>
<g><path style="opacity:1" fill="#71a7fb" d="M 1126.5,448.5 C 1126.56,447.957 1126.89,447.624 1127.5,447.5C 1128.8,450.309 1128.8,452.976 1127.5,455.5C 1127.8,452.941 1127.47,450.607 1126.5,448.5 Z"/></g>
<g><path style="opacity:1" fill="#74e8f9" d="M 638.5,437.5 C 624.411,446.257 610.077,454.59 595.5,462.5C 594.883,462.389 594.383,462.056 594,461.5C 589.068,462.298 584.401,462.964 580,463.5C 578.684,460.972 577.517,460.972 576.5,463.5C 574.169,463.55 572.003,463.217 570,462.5C 568.84,464.797 567.84,464.464 567,461.5C 566,462.5 565,463.5 564,464.5C 561.827,462.099 559.494,462.099 557,464.5C 555.667,464.5 554.333,464.5 553,464.5C 552.667,463.833 552.333,463.167 552,462.5C 546.681,462.848 541.515,462.848 536.5,462.5C 550.334,453.413 564.667,445.079 579.5,437.5C 581.761,438.409 583.928,438.742 586,438.5C 587.194,436.475 588.694,436.141 590.5,437.5C 591.541,435.009 592.374,435.009 593,437.5C 597.756,436.412 602.423,436.412 607,437.5C 608,436.833 609,436.167 610,435.5C 610.691,437.891 611.691,437.891 613,435.5C 613.875,437.513 615.209,437.513 617,435.5C 618.408,439.169 620.075,439.169 622,435.5C 623.66,435.324 625.326,435.991 627,437.5C 627.333,436.833 627.667,436.167 628,435.5C 629.667,436.833 631.333,436.833 633,435.5C 633.333,436.167 633.667,436.833 634,437.5C 635.451,437.264 636.951,437.264 638.5,437.5 Z"/></g>
<g><path style="opacity:1" fill="#74eaf9" d="M 254.5,457.5 C 258.008,458.504 261.174,460.171 264,462.5C 264.497,465.146 264.664,467.813 264.5,470.5C 261.672,470.479 259.172,470.145 257,469.5C 256.333,472.167 255.667,472.167 255,469.5C 253.149,471.781 251.482,471.781 250,469.5C 248.215,470.24 246.382,470.907 244.5,471.5C 241.949,471.063 239.282,471.063 236.5,471.5C 235.808,470.975 235.308,470.308 235,469.5C 234.692,470.308 234.192,470.975 233.5,471.5C 229.373,470.574 225.04,470.574 220.5,471.5C 213.547,468.357 206.881,464.69 200.5,460.5C 201.683,460.844 202.516,460.178 203,458.5C 204.154,460.957 205.488,460.957 207,458.5C 207.739,459.574 208.739,460.241 210,460.5C 211.452,458.175 213.119,458.175 215,460.5C 217.804,458.052 220.471,458.052 223,460.5C 224,459.833 225,459.167 226,458.5C 228.732,458.184 231.232,458.517 233.5,459.5C 235.059,458.926 236.559,458.26 238,457.5C 238.333,458.167 238.667,458.833 239,459.5C 241.575,458.411 244.241,458.411 247,459.5C 247.333,458.833 247.667,458.167 248,457.5C 250.274,458.811 252.44,458.811 254.5,457.5 Z"/></g>
<g><path style="opacity:1" fill="#6f91fd" d="M 958.5,453.5 C 957.833,462.5 957.167,471.5 956.5,480.5C 956.334,470.828 956.5,461.161 957,451.5C 957.717,452.044 958.217,452.711 958.5,453.5 Z"/></g>
<g><path style="opacity:1" fill="#75eefa" d="M 490.5,453.5 C 477.326,461.923 463.66,469.59 449.5,476.5C 447.088,476.331 444.921,476.997 443,478.5C 440.388,475.511 438.388,475.845 437,479.5C 434.025,478.331 431.192,476.998 428.5,475.5C 427.749,476.376 427.249,477.376 427,478.5C 426.125,476.487 424.791,476.487 423,478.5C 421.34,478.676 419.674,478.009 418,476.5C 416.235,477.239 414.235,477.239 412,476.5C 411,477.5 410,478.5 409,479.5C 408.085,478.672 407.419,477.672 407,476.5C 405.863,477.364 404.53,478.364 403,479.5C 402.481,478.484 401.647,477.818 400.5,477.5C 398.895,478.43 397.395,478.43 396,477.5C 395.333,480.167 394.667,480.167 394,477.5C 391.843,480.078 390.677,480.078 390.5,477.5C 387.815,478.177 384.982,478.177 382,477.5C 379.728,478.791 377.561,479.457 375.5,479.5C 375.002,478.397 374.669,477.397 374.5,476.5C 373.186,477.313 372.019,478.313 371,479.5C 368.508,479.341 366.008,479.341 363.5,479.5C 362.353,479.182 361.519,478.516 361,477.5C 360.667,478.167 360.333,478.833 360,479.5C 358.384,478.199 356.884,478.199 355.5,479.5C 354.508,471.684 354.174,463.684 354.5,455.5C 358.402,457.634 362.236,457.3 366,454.5C 366.419,455.672 367.085,456.672 368,457.5C 369.137,456.636 370.47,455.636 372,454.5C 372.333,455.167 372.667,455.833 373,456.5C 374.667,455.167 376.333,455.167 378,456.5C 378.308,455.692 378.808,455.025 379.5,454.5C 381.197,455.912 382.864,456.246 384.5,455.5C 384.055,458.365 384.722,460.865 386.5,463C 390.935,465.634 395.435,468.134 400,470.5C 409.515,464.494 419.348,459.161 429.5,454.5C 433.413,455.805 437.247,455.472 441,453.5C 442.938,454.86 444.604,454.527 446,452.5C 446.308,453.308 446.808,453.975 447.5,454.5C 454.089,453.756 461.089,453.756 468.5,454.5C 469.478,454.023 470.311,453.357 471,452.5C 473.055,452.152 475.055,452.819 477,454.5C 478.25,453.427 479.584,453.427 481,454.5C 481.381,453.518 482.214,452.852 483.5,452.5C 485.771,452.37 488.104,452.703 490.5,453.5 Z"/></g>
<g><path style="opacity:1" fill="#75eefa" d="M 324.5,457.5 C 324.5,465.167 324.5,472.833 324.5,480.5C 314.729,481.623 304.396,481.623 293.5,480.5C 293.5,472.833 293.5,465.167 293.5,457.5C 295.792,457.756 297.959,457.423 300,456.5C 300.333,457.167 300.667,457.833 301,458.5C 302.667,457.833 304.333,457.167 306,456.5C 309.359,457.784 312.692,457.784 316,456.5C 317.779,459.276 318.779,458.943 319,455.5C 320.584,456.861 322.418,457.528 324.5,457.5 Z"/></g>
<g><path style="opacity:1" fill="#75f1fb" d="M 264.5,470.5 C 264.5,479.167 264.5,487.833 264.5,496.5C 249.283,489.222 234.616,480.889 220.5,471.5C 225.04,470.574 229.373,470.574 233.5,471.5C 234.192,470.975 234.692,470.308 235,469.5C 235.308,470.308 235.808,470.975 236.5,471.5C 239.282,471.063 241.949,471.063 244.5,471.5C 246.382,470.907 248.215,470.24 250,469.5C 251.482,471.781 253.149,471.781 255,469.5C 255.667,472.167 256.333,472.167 257,469.5C 259.172,470.145 261.672,470.479 264.5,470.5 Z"/></g>
<g><path style="opacity:1" fill="#76f4fc" d="M 595.5,462.5 C 581.366,471.071 567.033,479.404 552.5,487.5C 552.19,486.262 551.69,486.262 551,487.5C 550.667,486.5 550.333,485.5 550,484.5C 549.149,487.612 547.983,487.946 546.5,485.5C 545.522,485.977 544.689,486.643 544,487.5C 542.602,486.949 541.268,486.616 540,486.5C 539.333,489.167 538.667,489.167 538,486.5C 537.667,487.167 537.333,487.833 537,488.5C 535.112,486.078 533.112,486.078 531,488.5C 528.876,487.773 526.709,487.106 524.5,486.5C 522.641,486.888 520.641,486.888 518.5,486.5C 517.808,487.025 517.308,487.692 517,488.5C 516,487.167 515,487.167 514,488.5C 513.667,487.833 513.333,487.167 513,486.5C 511.333,487.167 509.667,487.833 508,488.5C 507.333,487.167 506.667,487.167 506,488.5C 505.667,487.833 505.333,487.167 505,486.5C 504.481,487.516 503.647,488.182 502.5,488.5C 499.124,488.079 495.791,487.745 492.5,487.5C 506.909,478.631 521.576,470.298 536.5,462.5C 541.515,462.848 546.681,462.848 552,462.5C 552.333,463.167 552.667,463.833 553,464.5C 554.333,464.5 555.667,464.5 557,464.5C 559.494,462.099 561.827,462.099 564,464.5C 565,463.5 566,462.5 567,461.5C 567.84,464.464 568.84,464.797 570,462.5C 572.003,463.217 574.169,463.55 576.5,463.5C 577.517,460.972 578.684,460.972 580,463.5C 584.401,462.964 589.068,462.298 594,461.5C 594.383,462.056 594.883,462.389 595.5,462.5 Z"/></g>
<g><path style="opacity:1" fill="#76f7fd" d="M 449.5,476.5 C 433.154,486.675 416.487,496.341 399.5,505.5C 384.446,497.313 369.779,488.647 355.5,479.5C 356.884,478.199 358.384,478.199 360,479.5C 360.333,478.833 360.667,478.167 361,477.5C 361.519,478.516 362.353,479.182 363.5,479.5C 366.008,479.341 368.508,479.341 371,479.5C 372.019,478.313 373.186,477.313 374.5,476.5C 374.669,477.397 375.002,478.397 375.5,479.5C 377.561,479.457 379.728,478.791 382,477.5C 384.982,478.177 387.815,478.177 390.5,477.5C 390.677,480.078 391.843,480.078 394,477.5C 394.667,480.167 395.333,480.167 396,477.5C 397.395,478.43 398.895,478.43 400.5,477.5C 401.647,477.818 402.481,478.484 403,479.5C 404.53,478.364 405.863,477.364 407,476.5C 407.419,477.672 408.085,478.672 409,479.5C 410,478.5 411,477.5 412,476.5C 414.235,477.239 416.235,477.239 418,476.5C 419.674,478.009 421.34,478.676 423,478.5C 424.791,476.487 426.125,476.487 427,478.5C 427.249,477.376 427.749,476.376 428.5,475.5C 431.192,476.998 434.025,478.331 437,479.5C 438.388,475.845 440.388,475.511 443,478.5C 444.921,476.997 447.088,476.331 449.5,476.5 Z"/></g>
<g><path style="opacity:1" fill="#77fdfe" d="M 324.5,480.5 C 324.171,486.206 324.505,491.872 325.5,497.5C 350.332,511.994 375.165,526.327 400,540.5C 430.596,522.451 461.429,504.785 492.5,487.5C 495.791,487.745 499.124,488.079 502.5,488.5C 503.647,488.182 504.481,487.516 505,486.5C 505.333,487.167 505.667,487.833 506,488.5C 506.667,487.167 507.333,487.167 508,488.5C 509.667,487.833 511.333,487.167 513,486.5C 513.333,487.167 513.667,487.833 514,488.5C 515,487.167 516,487.167 517,488.5C 517.308,487.692 517.808,487.025 518.5,486.5C 520.641,486.888 522.641,486.888 524.5,486.5C 526.709,487.106 528.876,487.773 531,488.5C 533.112,486.078 535.112,486.078 537,488.5C 537.333,487.833 537.667,487.167 538,486.5C 538.667,489.167 539.333,489.167 540,486.5C 541.268,486.616 542.602,486.949 544,487.5C 544.689,486.643 545.522,485.977 546.5,485.5C 547.983,487.946 549.149,487.612 550,484.5C 550.333,485.5 550.667,486.5 551,487.5C 551.69,486.262 552.19,486.262 552.5,487.5C 501.875,516.905 451.042,546.239 400,575.5C 364.142,555.577 328.808,534.91 294,513.5C 293.5,502.505 293.333,491.505 293.5,480.5C 304.396,481.623 314.729,481.623 324.5,480.5 Z"/></g>
</svg>
